<svg width="288" height="344" viewBox="0 0 288 344" fill="none" xmlns="http://www.w3.org/2000/svg">
<path opacity="0.02" d="M-182 204.808C-124 175.808 -114 175.808 -95 190.308C-76 204.808 -18 223.308 -12 260.808C-6 298.308 -20 350.308 21 358.808C62 367.308 227 414.808 266.5 393.808C306 372.808 293 336.808 334 341.808C375 346.808 504.5 377.308 517.5 403.308C530.5 429.308 517.5 443.808 525.5 461.308C531.9 475.308 666.833 531.808 733.5 558.308M-140.5 -347.192C-82.5 -376.192 -31.7841 -412.927 12 -406.192C64 -398.192 270.43 -254.593 288.5 -221.191C305 -190.692 274.903 -164.943 297.5 -129.692C310 -110.193 437 -48.1913 467.5 -56.1913C498 -64.1913 509 -116.692 550 -111.692C591 -106.692 652 -54.1919 665 -28.1919C678 -2.19189 657 20.8087 665 38.3087C671.4 52.3087 903 201.809 903 201.809M-180.988 191.081C-122.988 162.081 -111.995 161.185 -92.3907 175.496C-72.5858 189.837 -10.9656 211.389 -4.6712 248.789C1.5849 286.118 -12.8077 337.478 27.7434 346.63C68.0483 355.398 232.121 403.252 271.402 382.569C310.682 361.886 298.268 325.484 339.268 330.484C380.268 335.484 508.097 366.52 521.097 392.52C534.097 418.52 520.902 433.228 528.902 450.728C535.302 464.728 672.593 523.496 737.634 549.35M-179.977 177.373C-121.977 148.373 -109.99 146.581 -89.7814 160.702C-69.1717 174.885 -3.93123 199.487 2.65758 236.787C9.16977 273.946 -5.61546 324.665 34.4868 334.47C74.0966 343.507 237.243 391.714 276.304 371.348C315.365 350.983 303.536 314.178 344.536 319.178C385.536 324.178 511.694 355.751 524.694 381.751C537.694 407.751 524.304 422.665 532.304 440.165C538.704 454.165 678.353 515.202 741.767 540.409M-178.963 163.682C-120.963 134.682 -107.984 131.994 -87.1702 145.926C-65.7556 159.951 3.10512 187.604 9.98833 224.804C16.7566 261.792 1.57877 311.871 41.2322 322.329C80.1469 331.634 242.366 380.195 281.208 360.146C320.049 340.097 308.805 302.89 349.805 307.89C390.805 312.89 515.293 344.999 528.293 370.999C541.293 396.999 527.708 412.121 535.708 429.621C542.108 443.621 684.114 506.926 745.903 531.487M-177.951 150.01C-119.951 121.01 -105.979 117.426 -84.5609 131.169C-62.3414 145.035 10.1395 175.739 17.3171 212.839C24.3415 249.656 8.77104 299.095 47.9757 310.205C86.1952 319.778 247.488 368.693 286.11 348.961C324.732 329.23 314.073 291.62 355.073 296.62C396.073 301.62 518.89 334.266 531.89 360.266C544.89 386.266 531.11 401.596 539.11 419.096C545.51 433.096 689.874 498.669 750.037 522.583M-176.939 136.356C-118.939 107.356 -103.974 102.876 -81.9516 116.429C-58.9273 130.136 17.1739 163.892 24.6459 200.892C31.9264 237.539 15.9633 286.337 54.7191 298.1C92.2435 307.941 252.609 357.21 291.012 337.795C329.414 318.38 319.341 280.368 360.341 285.368C401.341 290.368 522.487 323.551 535.487 349.551C548.487 375.551 534.512 391.088 542.512 408.588C548.912 422.588 695.634 490.429 754.17 513.697M-175.928 122.719C-117.928 93.7189 -101.969 88.343 -79.3424 101.707C-55.5131 115.256 24.2083 152.063 31.9747 188.963C39.5113 225.438 23.1556 273.597 61.4625 286.012C98.2918 296.121 257.731 345.743 295.914 326.646C334.097 307.548 324.609 269.134 365.609 274.134C406.609 279.134 526.084 312.853 539.084 338.853C552.084 364.853 537.914 380.597 545.914 398.097C552.314 412.097 701.393 482.207 758.304 504.829M-174.914 109.099C-116.914 80.0995 -99.9626 73.8276 -76.7311 87.002C-52.097 100.392 31.2446 140.25 39.3055 177.051C47.0981 213.356 30.3498 260.874 68.2079 273.941C104.342 284.319 262.854 334.295 300.818 315.514C338.781 296.734 329.879 257.917 370.879 262.917C411.879 267.917 529.683 302.173 542.683 328.173C555.683 354.173 541.318 370.124 549.318 387.624C555.718 401.624 707.155 474.002 762.44 495.978M-173.902 95.4969C-115.902 66.4969 -97.9578 59.329 -74.1219 72.3141C-48.6828 85.5457 38.279 128.455 46.6342 165.156C54.683 201.29 37.5421 248.168 74.9513 261.887C110.39 272.533 267.976 322.863 305.72 304.4C343.464 285.936 335.146 246.716 376.146 251.716C417.146 256.716 533.281 291.509 546.281 317.509C559.281 343.509 544.72 359.668 552.72 377.168C559.12 391.168 712.915 465.814 766.573 487.143M-172.891 81.9109C-114.891 52.9109 -95.953 44.847 -71.5126 57.6426C-45.2687 70.7157 45.3134 116.676 53.963 153.277C62.2679 189.24 44.7344 235.478 81.6948 249.85C116.439 260.764 273.097 311.448 310.622 293.301C348.146 275.155 340.414 235.533 381.414 240.533C422.414 245.533 536.878 280.862 549.878 306.862C562.878 332.862 548.122 349.228 556.122 366.728C562.522 380.728 718.674 457.643 770.707 478.326M-171.879 68.3408C-113.879 39.3408 -93.9482 30.3809 -68.9033 42.9872C-41.8545 55.9017 52.3478 104.914 61.2918 141.414C69.8528 177.207 51.9266 222.804 88.4382 237.829C122.487 249.011 278.219 300.048 315.524 282.219C352.828 264.39 345.682 224.365 386.682 229.365C427.682 234.365 540.475 270.231 553.475 296.231C566.475 322.231 551.524 338.804 559.524 356.304C565.924 370.304 724.434 449.487 774.841 469.524M-170.865 54.7862C-112.865 25.7862 -91.9414 15.9303 -66.2921 28.3472C-38.4384 41.1032 59.3842 93.1663 68.6226 129.567C77.4397 165.189 59.1208 210.146 95.1835 225.823C128.537 237.274 283.342 288.664 320.427 271.152C357.513 253.64 350.952 213.213 391.952 218.213C432.952 223.213 544.074 259.615 557.074 285.615C570.074 311.615 554.927 328.396 562.927 345.896C569.327 359.896 730.196 441.347 778.976 460.738M-169.854 41.2466C-111.854 12.2466 -89.9367 1.49466 -63.6828 13.7222C-35.0242 26.3197 66.4185 81.4339 75.9514 117.735C85.0245 153.186 66.3131 197.502 101.927 213.832C134.586 225.551 288.464 277.296 325.329 260.1C362.195 242.905 356.22 202.076 397.22 207.076C438.22 212.076 547.671 249.015 560.671 275.015C573.671 301.015 558.329 318.003 566.329 335.503C572.729 349.503 735.955 433.222 783.11 451.966M-168.842 27.7213C-110.842 -1.27872 -87.9319 -12.9266 -61.0735 -0.888397C-31.6101 11.5505 73.4529 69.7159 83.2802 105.917C92.6094 141.197 73.5054 184.873 108.67 201.855C140.634 213.843 293.585 265.941 330.231 249.063C366.878 232.185 361.487 190.953 402.487 195.953C443.487 200.953 551.268 238.429 564.268 264.429C577.268 290.429 561.731 307.624 569.731 325.124C576.131 339.124 741.715 425.112 787.244 443.209M-167.83 14.2099C-109.83 -14.7901 -85.9271 -27.334 -58.4642 -15.4852C-28.1959 -3.20482 80.4873 58.0118 90.6089 94.1125C100.194 129.222 80.6977 172.258 115.414 189.893C146.682 202.149 298.706 254.6 335.133 238.039C371.56 221.478 366.755 179.844 407.755 184.844C448.755 189.844 554.865 227.856 567.865 253.856C580.865 279.856 565.133 297.259 573.133 314.759C579.533 328.759 747.475 417.015 791.377 434.466M-166.816 0.71167C-108.816 -28.2883 -83.9203 -41.7281 -55.853 -30.0687C-24.7798 -17.9469 87.5237 46.3209 97.9397 82.3217C107.781 117.26 87.8919 159.657 122.159 177.943C152.732 190.468 303.83 243.273 340.037 227.029C376.245 210.785 372.025 168.748 413.025 173.748C454.025 178.748 558.464 217.297 571.464 243.297C584.464 269.297 568.537 286.907 576.537 304.407C582.937 318.407 753.236 408.931 795.513 425.736M-165.805 -12.7739C-107.805 -41.7739 -81.9155 -56.1097 -53.2437 -44.6397C-21.3657 -32.6764 94.5581 34.6426 105.268 70.5434C115.366 105.311 95.0841 147.067 128.903 166.007C158.781 178.799 308.951 231.958 344.939 216.031C380.927 200.104 377.293 157.665 418.293 162.665C459.293 167.665 562.061 206.75 575.061 232.75C588.061 258.75 571.939 276.568 579.939 294.068C586.339 308.068 758.996 400.861 799.647 417.019M-164.793 -26.2473C-106.793 -55.2473 -79.9108 -70.4792 -50.6344 -59.1985C-17.9515 -47.3937 101.592 22.9764 112.597 58.7773C122.951 93.3746 102.276 134.49 135.646 154.082C164.829 167.143 314.073 220.655 349.841 205.046C385.609 189.436 382.561 146.594 423.561 151.594C464.561 156.594 565.658 196.216 578.658 222.216C591.658 248.216 575.341 266.241 583.341 283.741C589.741 297.741 764.756 392.802 803.78 408.314M-163.781 -39.7093C-105.781 -68.7093 -77.906 -84.8371 -48.0251 -73.7458C-14.5373 -62.0996 108.627 11.3218 119.926 47.0227C130.536 81.4492 109.469 121.925 142.389 142.169C170.877 155.498 319.194 209.364 354.743 194.071C390.292 178.779 387.828 135.535 428.828 140.535C469.828 145.535 569.255 185.693 582.255 211.693C595.255 237.693 578.743 255.925 586.743 273.425C593.143 287.425 770.516 384.754 807.914 399.62M-162.768 -53.1602C-104.768 -82.1602 -75.8992 -99.184 -45.4139 -88.2821C-11.1212 -76.7944 115.663 -0.321877 127.257 35.2791C138.123 69.5349 116.663 109.37 149.135 130.267C176.928 143.864 324.318 198.084 359.647 183.108C394.976 168.133 393.098 124.486 434.098 129.486C475.098 134.486 572.854 175.181 585.854 201.181C598.854 227.181 582.147 245.621 590.147 263.121C596.547 277.121 776.277 376.718 812.049 390.938M-161.756 -66.6007C-103.756 -95.6007 -73.8944 -113.521 -42.8046 -102.808C-7.70708 -91.4788 122.698 -11.9552 134.586 23.5459C145.708 57.6309 123.855 96.8258 155.878 118.375C182.976 132.24 329.439 186.814 364.549 172.156C399.659 157.497 398.366 113.448 439.366 118.448C480.366 123.448 576.451 164.68 589.451 190.68C602.451 216.68 585.549 235.326 593.549 252.826C599.949 266.826 782.037 368.692 816.183 382.265M-160.744 -80.0313C-102.744 -109.031 -71.8896 -127.847 -40.1954 -117.324C-4.29292 -106.153 129.732 -23.5785 141.914 11.8227C153.292 45.7369 131.047 84.2915 162.622 106.493C189.024 120.627 334.561 175.554 369.451 161.213C404.341 146.871 403.634 102.42 444.634 107.42C485.634 112.42 580.049 154.188 593.049 180.188C606.049 206.188 588.951 225.042 596.951 242.542C603.351 256.542 787.797 360.676 820.317 373.603M-159.732 -93.4526C-101.732 -122.453 -69.8849 -142.164 -37.5861 -131.831C-0.878777 -120.818 136.766 -35.1924 149.243 0.108765C160.877 33.8523 138.24 71.7666 169.365 94.6206C195.072 109.023 339.682 164.304 374.353 150.279C409.024 136.255 408.902 91.4011 449.902 96.4011C490.902 101.401 583.646 143.706 596.646 169.706C609.646 195.706 592.353 214.767 600.353 232.267C606.753 246.267 793.556 352.67 824.451 364.95M-158.719 -106.865C-100.719 -135.865 -67.8781 -156.473 -34.9749 -146.328C2.53735 -135.475 143.803 -46.7975 156.574 -11.5962C168.464 21.9765 145.434 59.2506 176.111 82.757C201.123 97.4274 344.806 153.062 379.257 139.355C413.708 125.648 414.172 80.3912 455.172 85.3912C496.172 90.3912 587.245 133.233 600.245 159.233C613.245 185.233 595.757 204.501 603.757 222.001C610.157 236.001 799.318 344.672 828.586 356.306M-157.707 -120.269C-99.707 -149.269 -65.8733 -170.772 -32.3656 -160.817C5.95151 -150.122 150.837 -58.394 163.903 -23.2927C176.049 10.1093 152.626 46.743 182.854 70.902C207.171 85.8406 349.927 141.829 384.159 128.439C418.391 115.049 419.439 69.3898 460.439 74.3898C501.439 79.3898 590.842 122.768 603.842 148.768C616.842 174.768 599.159 194.244 607.159 211.744C613.559 225.744 805.078 336.683 832.72 347.671M-156.695 -133.665C-98.6953 -162.665 -63.8685 -185.064 -29.7563 -175.299C9.36566 -164.762 157.871 -69.9826 171.232 -34.9812C183.634 -1.74997 159.819 34.2435 189.597 59.0549C213.219 74.2618 355.049 130.604 389.061 117.531C423.073 104.458 424.707 58.3964 465.707 63.3964C506.707 68.3964 594.439 112.311 607.439 138.311C620.439 164.311 602.561 183.994 610.561 201.494C616.961 215.494 810.837 328.702 836.853 339.043M-155.684 -147.053C-97.6836 -176.053 -61.8637 -199.349 -27.147 -189.772C12.7798 -179.394 164.906 -81.5636 178.56 -46.6622C191.219 -13.6017 167.011 21.7515 196.341 47.2154C219.268 62.6906 360.17 119.387 393.963 106.63C427.755 93.8743 429.975 47.4105 470.975 52.4105C511.975 57.4105 598.036 101.862 611.036 127.862C624.036 153.862 605.963 173.752 613.963 191.252C620.363 205.252 816.597 320.728 840.987 330.423M-154.67 -160.434C-96.6699 -189.434 -59.857 -213.626 -24.5358 -204.239C16.1959 -194.019 171.942 -93.1373 185.891 -58.3359C198.806 -25.4461 174.205 9.26685 203.086 35.3831C225.318 51.1266 365.293 108.176 398.867 95.7372C432.44 83.2982 435.245 36.4319 476.245 41.4319C517.245 46.4319 601.635 91.4197 614.635 117.42C627.635 143.42 609.367 163.518 617.367 181.018C623.767 195.018 822.359 312.762 845.123 321.81M-153.658 -173.808C-95.6582 -202.808 -57.8522 -227.896 -21.9265 -218.698C19.6101 -208.637 178.977 -104.704 193.22 -70.0028C206.391 -37.2838 181.397 -3.21107 209.83 23.5577C231.366 39.5694 370.415 96.9728 403.769 84.8508C437.122 72.7289 440.513 25.4601 481.513 30.4601C522.513 35.4601 605.232 80.9845 618.232 106.984C631.232 132.984 612.769 153.29 620.769 170.79C627.169 184.79 828.118 304.802 849.256 313.205M-152.646 -187.176C-94.6465 -216.176 -55.8474 -242.16 -19.3172 -233.151C23.0242 -223.249 186.011 -116.265 200.549 -81.6633C213.975 -49.115 188.59 -15.6825 216.573 11.7387C237.414 28.0187 375.536 85.7757 408.671 73.9709C441.805 62.166 445.78 14.4948 486.78 19.4948C527.78 24.4948 608.829 70.5558 621.829 96.5558C634.829 122.556 616.171 143.068 624.171 160.568C630.571 174.568 833.878 296.849 853.39 304.605M-151.635 -200.538C-93.6348 -229.538 -53.8426 -256.417 -16.7079 -247.598C26.4384 -237.855 193.045 -127.819 207.877 -93.3176C221.56 -60.9401 195.782 -28.1479 223.316 -0.0742188C243.463 16.4741 380.658 74.5848 413.573 63.097C446.487 51.6092 451.048 3.53555 492.048 8.53555C533.048 13.5356 612.426 60.1331 625.426 86.1331C638.426 112.133 619.573 132.853 627.573 150.353C633.973 164.353 839.638 288.902 857.524 296.012M-150.621 -213.894C-92.6211 -242.894 -51.8359 -270.669 -14.0967 -262.04C29.8545 -252.455 200.082 -139.368 215.208 -104.966C229.147 -72.7595 202.976 -40.6076 230.062 -11.8814C249.513 4.93517 385.781 63.3996 418.476 52.2288C451.172 41.0581 456.318 -7.418 497.318 -2.418C538.318 2.582 616.025 49.7161 629.025 75.7161C642.025 101.716 622.976 122.643 630.976 140.143C637.376 154.143 845.399 280.961 861.659 287.424M-149.609 -227.244C-91.6094 -256.244 -49.8311 -284.916 -11.4874 -276.476C33.2687 -267.049 207.116 -150.911 222.537 -116.609C236.732 -84.5733 210.168 -53.0616 236.805 -23.683C255.561 -6.59819 390.903 52.2199 423.378 41.3663C455.854 30.5126 461.586 -18.3659 502.586 -13.3659C543.586 -8.36594 619.622 39.3048 632.622 65.3048C645.622 91.3048 626.378 112.439 634.378 129.939C640.778 143.939 851.159 273.025 865.793 278.842M-148.598 -240.589C-90.5977 -269.589 -47.8263 -299.157 -8.87814 -290.906C36.6828 -281.638 214.15 -162.449 229.866 -128.247C244.317 -96.3819 217.361 -65.5104 243.549 -35.4794C261.61 -18.1263 396.024 41.0455 428.28 30.5089C460.536 19.9723 466.854 -29.3087 507.854 -24.3087C548.854 -19.3087 623.219 28.8987 636.219 54.8987C649.219 80.8987 629.78 102.241 637.78 119.741C644.18 133.741 856.919 265.094 869.927 270.265M-147.586 -253.929C-89.5859 -282.929 -45.8215 -313.393 -6.26886 -305.332C40.097 -296.222 221.185 -173.982 237.195 -139.88C251.902 -108.185 224.553 -77.9543 250.292 -47.2708C267.658 -29.6494 401.146 29.876 433.182 19.6565C465.219 9.43701 472.121 -40.2465 513.121 -35.2465C554.121 -30.2465 626.817 18.4974 639.817 44.4974C652.817 70.4974 633.182 92.0468 641.182 109.547C647.582 123.547 862.678 257.169 874.06 261.693M-146.572 -267.265C-88.5723 -296.265 -43.8148 -327.624 -3.65764 -319.752C43.5131 -310.802 228.221 -185.51 244.525 -151.508C259.489 -119.984 231.747 -90.3935 257.037 -59.0576C273.708 -41.1679 406.269 18.7112 438.086 8.80881C469.903 -1.09363 477.391 -51.1795 518.391 -46.1795C559.391 -41.1795 630.416 8.10095 643.416 34.101C656.416 60.101 636.586 81.8576 644.586 99.3576C650.986 113.358 868.44 249.248 878.196 253.126M-145.561 -280.596C-87.5605 -309.596 -41.81 -341.852 -1.04836 -334.169C46.9272 -325.377 235.256 -197.034 251.854 -163.132C267.074 -131.779 238.939 -102.828 263.781 -70.8399C279.757 -52.6819 411.391 7.5509 442.988 -2.03445C474.586 -11.6198 482.659 -62.1082 523.659 -57.1082C564.659 -52.1082 634.013 -2.29111 647.013 23.7089C660.013 49.7089 639.988 71.6729 647.988 89.1729C654.388 103.173 874.2 241.331 882.33 244.563M-144.549 -293.923C-86.5488 -322.923 -39.8052 -356.074 1.56093 -348.581C50.3414 -339.947 242.29 -208.553 259.183 -174.751C274.659 -143.569 246.132 -115.259 270.524 -82.618C285.805 -64.1917 416.512 -3.60519 447.89 -12.8735C479.268 -22.1418 487.927 -73.0326 528.927 -68.0326C569.927 -63.0326 637.61 -12.6789 650.61 13.3211C663.61 39.3211 643.39 61.4924 651.39 78.9924C657.79 92.9924 879.959 233.419 886.463 236.005M-143.537 -307.246C-85.5371 -336.246 -37.8004 -370.293 4.17021 -362.989C53.7556 -354.514 249.324 -220.069 266.512 -186.367C282.243 -155.355 253.324 -127.685 277.268 -94.392C291.853 -75.6974 421.634 -14.7572 452.792 -23.7085C483.951 -32.6597 493.195 -83.9529 534.195 -78.9529C575.195 -73.9529 641.207 -23.0627 654.207 2.93729C667.207 28.9373 646.792 51.3159 654.792 68.8159C661.192 82.8159 885.719 225.511 890.597 227.45M-142.523 -320.565C-84.5234 -349.565 -35.7937 -384.508 6.78143 -377.394C57.1717 -369.077 256.361 -231.581 273.842 -197.979C289.83 -167.138 260.518 -140.108 284.013 -106.162C297.903 -87.1994 426.757 -25.9055 457.696 -34.5396C488.635 -43.1738 498.464 -94.8695 539.464 -89.8695C580.464 -84.8695 644.806 -33.4427 657.806 -7.44269C670.806 18.5573 650.196 41.1433 658.196 58.6433C664.596 72.6433 891.481 217.607 894.733 218.899M-141.512 -333.88C-83.5117 -362.88 -33.7889 -398.719 9.39072 -391.794C60.5858 -383.636 263.395 -243.089 281.171 -209.587C297.415 -178.917 267.71 -152.527 290.757 -117.929C303.952 -98.6977 431.879 -37.0501 462.598 -45.3672C493.318 -53.6843 503.732 -105.782 544.732 -100.782C585.732 -95.7824 648.403 -43.819 661.403 -17.819C674.403 8.18097 653.598 30.9743 661.598 48.4743C667.998 62.4743 897.24 209.706 898.866 210.352" stroke="white" stroke-width="2"/>
</svg>
