<svg width="0" height="0" class="hidden">
    <symbol fill="inherit" xmlns="http://www.w3.org/2000/svg" viewBox="0 0 16 16" id="coins">
        <path d="M1.6688 2.4C2.0496 2.0752 3.372 1.6 4.8 1.6C6.228 1.6 7.5512 2.0752 7.9312 2.4H9.6C9.6 0.604 6.3032 0 4.8 0C3.2968 0 0 0.604 0 2.4V12C0 13.796 3.2968 14.4 4.8 14.4C5.0296 14.4 5.3048 14.384 5.6 14.3536V12.7472C5.34 12.7776 5.0736 12.8 4.8 12.8C3.2672 12.8 1.8544 12.252 1.6 11.9312V11.3768C2.656 11.8216 3.988 12 4.8 12C5.0304 12 5.3048 11.984 5.6 11.9536V10.3472C5.34 10.3776 5.0736 10.4 4.8 10.4C3.2512 10.4 1.8328 9.84158 1.6 9.52158V8.97598C2.656 9.42078 3.988 9.59922 4.8 9.59922C5.0304 9.59922 5.3048 9.58323 5.6 9.55283V7.94639C5.34 7.97679 5.0736 7.99922 4.8 7.99922C3.2512 7.99922 1.8328 7.4408 1.6 7.1208V6.57519C2.656 7.01999 3.988 7.19844 4.8 7.19844C5.0304 7.19844 5.3048 7.18235 5.6 7.15195V5.54561C5.34 5.576 5.0736 5.59844 4.8 5.59844C3.2512 5.59844 1.8328 5.04002 1.6 4.72002V4.17441C2.656 4.61921 3.988 4.79756 4.8 4.79756C5.0304 4.79756 5.3048 4.78157 5.6 4.75117V3.14561C5.34 3.17601 5.0736 3.19756 4.8 3.19756C3.3728 3.19996 2.0496 2.7248 1.6688 2.4Z"/>
        <path d="M11.2 4C9.6968 4 6.4 4.604 6.4 6.4V13.6C6.4 15.396 9.6968 16 11.2 16C12.7032 16 16 15.396 16 13.6V6.4C16 4.6048 12.704 4 11.2 4ZM14.4 8.72236C14.168 9.04236 12.7496 9.60078 11.2 9.60078C9.6512 9.60078 8.2328 9.04236 8 8.72236V8.17676C9.056 8.62156 10.388 8.8 11.2 8.8C12.012 8.8 13.344 8.62156 14.4 8.17676V8.72236ZM14.4 11.1224C14.168 11.4424 12.7496 12.0008 11.2 12.0008C9.6512 12.0008 8.2328 11.4424 8 11.1224V10.5768C9.056 11.0216 10.388 11.2 11.2 11.2C12.012 11.2 13.344 11.0216 14.4 10.5768V11.1224ZM11.2 5.6C12.628 5.6 13.9512 6.0752 14.3312 6.4C13.9504 6.7248 12.6272 7.2 11.2 7.2C9.7728 7.2 8.4496 6.7248 8.0688 6.4C8.4496 6.076 9.7728 5.6 11.2 5.6ZM11.2 14.4C9.6672 14.4 8.2544 13.852 8 13.5312V12.9768C9.056 13.4216 10.388 13.6 11.2 13.6C12.012 13.6 13.344 13.4216 14.4 12.9768V13.5312C14.1456 13.852 12.7328 14.4 11.2 14.4Z"/>
    </symbol>

    <symbol fill="inherit" xmlns="http://www.w3.org/2000/svg" viewBox="0 0 16 16" id="graph">
        <path d="M14.6667 14.6664V5.99968C14.6667 5.63168 14.368 5.33302 14 5.33302H11.3333C10.9653 5.33302 10.6667 5.63168 10.6667 5.99968V14.6664H10V8.66635C10 8.29835 9.70133 7.99968 9.33333 7.99968H6.66667C6.29867 7.99968 6 8.29835 6 8.66635V14.6664H5.33333V11.333C5.33333 10.965 5.03467 10.6664 4.66667 10.6664H2C1.632 10.6664 1.33333 10.965 1.33333 11.333V14.6664H0V15.9997H16V14.6664H14.6667ZM2.66667 14.6664V11.9997H4V14.6664H2.66667ZM7.33333 14.6664V9.33302H8.66667V14.6664H7.33333ZM12 14.6664V6.66635H13.3333V14.6664H12Z"/>
        <path d="M2.47127 9.80433L9.99996 2.27634V4.00034H11.3333V0.000335693H7.33329V1.33367H9.05729L1.52865 8.86166L2.47127 9.80433Z"/>
    </symbol>

    <symbol fill="inherit" xmlns="http://www.w3.org/2000/svg" viewBox="0 0 16 16" id="diamond">
        <path d="M15.8944 6.0029L12.6944 0.403178C12.552 0.153591 12.2872 0 12 0H3.99999C3.71279 0 3.448 0.153591 3.3056 0.403178L0.105589 6.0029C-0.0592116 6.29008 -0.0288162 6.65006 0.180784 6.90605L7.38081 15.7064C7.53281 15.892 7.76 16 8 16C8.24 16 8.46719 15.8928 8.61919 15.7064L15.8192 6.90605C16.0288 6.65006 16.0592 6.29008 15.8944 6.0029ZM6.81362 5.59972L8 2.83106L9.18638 5.59972H6.81362ZM9.35279 7.19964L8 12.1594L6.64799 7.19964H9.35279ZM9.21363 1.59992H10.94L10.2496 4.01659L9.21363 1.59992ZM5.75121 4.01659L5.06078 1.59992H6.7872L5.75121 4.01659ZM4.5392 5.59972H2.1784L3.75199 2.84546L4.5392 5.59972ZM4.98881 7.19964L6.2392 11.7842L2.48797 7.19964H4.98881ZM11.0112 7.19964H13.512L9.76163 11.7842L11.0112 7.19964ZM11.4608 5.59972L12.248 2.84546L13.8216 5.59972H11.4608Z"/>
    </symbol>
</svg>