<svg width="0" height="0" class="hidden">
    <symbol fill="inherit" xmlns="http://www.w3.org/2000/svg" viewBox="0 0 16 16" id="coins">
        <path d="M1.6688 2.4C2.0496 2.0752 3.372 1.6 4.8 1.6C6.228 1.6 7.5512 2.0752 7.9312 2.4H9.6C9.6 0.604 6.3032 0 4.8 0C3.2968 0 0 0.604 0 2.4V12C0 13.796 3.2968 14.4 4.8 14.4C5.0296 14.4 5.3048 14.384 5.6 14.3536V12.7472C5.34 12.7776 5.0736 12.8 4.8 12.8C3.2672 12.8 1.8544 12.252 1.6 11.9312V11.3768C2.656 11.8216 3.988 12 4.8 12C5.0304 12 5.3048 11.984 5.6 11.9536V10.3472C5.34 10.3776 5.0736 10.4 4.8 10.4C3.2512 10.4 1.8328 9.84158 1.6 9.52158V8.97598C2.656 9.42078 3.988 9.59922 4.8 9.59922C5.0304 9.59922 5.3048 9.58323 5.6 9.55283V7.94639C5.34 7.97679 5.0736 7.99922 4.8 7.99922C3.2512 7.99922 1.8328 7.4408 1.6 7.1208V6.57519C2.656 7.01999 3.988 7.19844 4.8 7.19844C5.0304 7.19844 5.3048 7.18235 5.6 7.15195V5.54561C5.34 5.576 5.0736 5.59844 4.8 5.59844C3.2512 5.59844 1.8328 5.04002 1.6 4.72002V4.17441C2.656 4.61921 3.988 4.79756 4.8 4.79756C5.0304 4.79756 5.3048 4.78157 5.6 4.75117V3.14561C5.34 3.17601 5.0736 3.19756 4.8 3.19756C3.3728 3.19996 2.0496 2.7248 1.6688 2.4Z"/>
        <path d="M11.2 4C9.6968 4 6.4 4.604 6.4 6.4V13.6C6.4 15.396 9.6968 16 11.2 16C12.7032 16 16 15.396 16 13.6V6.4C16 4.6048 12.704 4 11.2 4ZM14.4 8.72236C14.168 9.04236 12.7496 9.60078 11.2 9.60078C9.6512 9.60078 8.2328 9.04236 8 8.72236V8.17676C9.056 8.62156 10.388 8.8 11.2 8.8C12.012 8.8 13.344 8.62156 14.4 8.17676V8.72236ZM14.4 11.1224C14.168 11.4424 12.7496 12.0008 11.2 12.0008C9.6512 12.0008 8.2328 11.4424 8 11.1224V10.5768C9.056 11.0216 10.388 11.2 11.2 11.2C12.012 11.2 13.344 11.0216 14.4 10.5768V11.1224ZM11.2 5.6C12.628 5.6 13.9512 6.0752 14.3312 6.4C13.9504 6.7248 12.6272 7.2 11.2 7.2C9.7728 7.2 8.4496 6.7248 8.0688 6.4C8.4496 6.076 9.7728 5.6 11.2 5.6ZM11.2 14.4C9.6672 14.4 8.2544 13.852 8 13.5312V12.9768C9.056 13.4216 10.388 13.6 11.2 13.6C12.012 13.6 13.344 13.4216 14.4 12.9768V13.5312C14.1456 13.852 12.7328 14.4 11.2 14.4Z"/>
    </symbol>

    <symbol fill="inherit" xmlns="http://www.w3.org/2000/svg" viewBox="0 0 16 16" id="graph">
        <path d="M14.6667 14.6664V5.99968C14.6667 5.63168 14.368 5.33302 14 5.33302H11.3333C10.9653 5.33302 10.6667 5.63168 10.6667 5.99968V14.6664H10V8.66635C10 8.29835 9.70133 7.99968 9.33333 7.99968H6.66667C6.29867 7.99968 6 8.29835 6 8.66635V14.6664H5.33333V11.333C5.33333 10.965 5.03467 10.6664 4.66667 10.6664H2C1.632 10.6664 1.33333 10.965 1.33333 11.333V14.6664H0V15.9997H16V14.6664H14.6667ZM2.66667 14.6664V11.9997H4V14.6664H2.66667ZM7.33333 14.6664V9.33302H8.66667V14.6664H7.33333ZM12 14.6664V6.66635H13.3333V14.6664H12Z"/>
        <path d="M2.47127 9.80433L9.99996 2.27634V4.00034H11.3333V0.000335693H7.33329V1.33367H9.05729L1.52865 8.86166L2.47127 9.80433Z"/>
    </symbol>

    <symbol fill="inherit" xmlns="http://www.w3.org/2000/svg" viewBox="0 0 16 16" id="diamond">
        <path d="M15.8944 6.0029L12.6944 0.403178C12.552 0.153591 12.2872 0 12 0H3.99999C3.71279 0 3.448 0.153591 3.3056 0.403178L0.105589 6.0029C-0.0592116 6.29008 -0.0288162 6.65006 0.180784 6.90605L7.38081 15.7064C7.53281 15.892 7.76 16 8 16C8.24 16 8.46719 15.8928 8.61919 15.7064L15.8192 6.90605C16.0288 6.65006 16.0592 6.29008 15.8944 6.0029ZM6.81362 5.59972L8 2.83106L9.18638 5.59972H6.81362ZM9.35279 7.19964L8 12.1594L6.64799 7.19964H9.35279ZM9.21363 1.59992H10.94L10.2496 4.01659L9.21363 1.59992ZM5.75121 4.01659L5.06078 1.59992H6.7872L5.75121 4.01659ZM4.5392 5.59972H2.1784L3.75199 2.84546L4.5392 5.59972ZM4.98881 7.19964L6.2392 11.7842L2.48797 7.19964H4.98881ZM11.0112 7.19964H13.512L9.76163 11.7842L11.0112 7.19964ZM11.4608 5.59972L12.248 2.84546L13.8216 5.59972H11.4608Z"/>
    </symbol>

    <symbol fill="inherit" xmlns="http://www.w3.org/2000/svg" viewBox="0 0 32 32" id="like">
        <path d="M30.8492 13.5701C29.7928 12.162 28.1951 11.3548 26.4646 11.3548H19.772L21.3777 6.88101C22.3094 4.28798 21.1946 1.39972 18.784 0.163072C18.1662 -0.152799 17.4177 -2.4611e-05 16.9669 0.53675L8.38689 10.7293C7.51963 11.7615 7.04273 13.0787 7.04273 14.4392V26.3226C7.04273 29.4545 9.5258 32 12.5763 32H24.066C26.5732 32 28.7726 30.2637 29.4165 27.776L31.813 18.4857C32.2557 16.768 31.9036 14.9781 30.8492 13.5701Z"/>
        <path d="M6.53968 32H3.52137C1.57958 32 0 30.3794 0 28.3871V14.9677C0 12.9755 1.57958 11.3548 3.52137 11.3548H6.53968C8.48146 11.3548 10.061 12.9755 10.061 14.9677V28.3871C10.061 30.3794 8.48146 32 6.53968 32ZM3.52137 14.4516C3.24368 14.4516 3.01831 14.6828 3.01831 14.9677V28.3871C3.01831 28.672 3.24368 28.9032 3.52137 28.9032H6.53968C6.81737 28.9032 7.04273 28.672 7.04273 28.3871V14.9677C7.04273 14.6828 6.81737 14.4516 6.53968 14.4516H3.52137Z"/>
    </symbol>

    <symbol fill="inherit" xmlns="http://www.w3.org/2000/svg" viewBox="0 0 32 32" id="lifeline">
        <path d="M10.7062 14.0228L8.06353 13.0344C8.92371 10.7319 10.7363 8.91896 13.0383 8.0586L14.0265 10.7037C12.4924 11.2779 11.2822 12.4865 10.7062 14.0228Z"/>
        <path d="M21.2919 14.0228C20.716 12.4884 19.5076 11.2779 17.9717 10.7037L18.9598 8.0586C21.2618 8.91896 23.0744 10.7319 23.9346 13.0344L21.2919 14.0228Z"/>
        <path d="M18.9617 23.9367L17.9735 21.2916C19.5076 20.7174 20.7178 19.5088 21.2938 17.9725L23.9365 18.9609C23.0763 21.2634 21.2637 23.0763 18.9617 23.9367Z"/>
        <path d="M13.0364 23.9367C10.7344 23.0763 8.92183 21.2634 8.06164 18.9609L10.7043 17.9725C11.2803 19.5069 12.4887 20.7174 14.0246 21.2916L13.0364 23.9367Z"/>
        <path d="M10.7325 30.1117C6.64055 28.583 3.41627 25.36 1.88977 21.2652L4.53244 20.2787C5.77472 23.6054 8.3948 26.226 11.7207 27.4666L10.7325 30.1117Z"/>
        <path d="M21.2656 30.1117L20.2774 27.4666C23.6052 26.2241 26.2234 23.6054 27.4657 20.2787L30.1083 21.2652C28.58 25.36 25.3576 28.5849 21.2656 30.1117Z"/>
        <path d="M27.4638 11.7184C26.2253 8.39182 23.6052 5.7712 20.2774 4.52867L21.2656 1.88357C25.3595 3.41227 28.5837 6.63721 30.1102 10.7319L27.4638 11.7184Z"/>
        <path d="M4.53244 11.7184L1.88977 10.7319C3.41815 6.63721 6.64055 3.41227 10.7325 1.88545L11.7207 4.53055C8.39292 5.77308 5.77472 8.39182 4.53244 11.7184Z"/>
        <path d="M18.4686 10.7959C18.3048 10.7959 18.1373 10.7677 17.9735 10.7075C16.703 10.2349 15.2838 10.2349 14.0246 10.7075C13.6707 10.8374 13.283 10.8242 12.9442 10.6679C12.6035 10.5117 12.34 10.2293 12.2063 9.87722L9.57308 2.81924C9.44321 2.46907 9.45639 2.07936 9.61261 1.73861C9.76884 1.39785 10.0531 1.1324 10.4032 1.0025C13.9832 -0.334167 18.0168 -0.334167 21.5968 1.0025C22.3272 1.27548 22.698 2.08878 22.425 2.81924L19.7918 9.8791C19.5791 10.4477 19.0408 10.7959 18.4686 10.7959Z"/>
        <path d="M29.6698 22.5115C29.506 22.5115 29.3385 22.4833 29.1748 22.4231L22.1182 19.7893C21.3879 19.5163 21.0171 18.703 21.29 17.9725C21.5272 17.34 21.6458 16.6754 21.6458 15.9976C21.6458 15.3161 21.5272 14.6535 21.2919 14.0265C21.1602 13.6745 21.1752 13.2867 21.3296 12.944C21.4858 12.6033 21.7681 12.3378 22.1201 12.206L29.1766 9.57223C29.9164 9.29925 30.7201 9.67201 30.993 10.4006C31.6612 12.1872 32 14.0717 32 15.9976C32 17.9236 31.6612 19.8081 30.993 21.5947C30.7822 22.1614 30.242 22.5115 29.6698 22.5115Z"/>
        <path d="M15.9991 32C14.0754 32 12.1932 31.6611 10.4013 30.9928C9.67096 30.7198 9.30016 29.9065 9.57308 29.1761L12.2063 22.1162C12.4811 21.3857 13.2905 21.0149 14.0246 21.2878C15.2951 21.7604 16.7143 21.7604 17.9735 21.2878C18.3255 21.1561 18.7133 21.1692 19.0539 21.3274C19.3946 21.4836 19.6581 21.766 19.7918 22.1181L22.425 29.1761C22.5549 29.5262 22.5417 29.9159 22.3855 30.2567C22.2293 30.5974 21.9451 30.8629 21.595 30.9928C19.805 31.6611 17.9227 32 15.9972 32H15.9991Z"/>
        <path d="M2.32833 22.5115C1.75613 22.5115 1.21781 22.1614 1.007 21.5947C0.338804 19.8081 0 17.9236 0 15.9976C0 14.0717 0.338804 12.1872 1.007 10.4006C1.27992 9.67201 2.08741 9.30113 2.82336 9.57223L9.87989 12.206C10.6102 12.479 10.9791 13.2923 10.7062 14.0228C10.469 14.6553 10.3523 15.3199 10.3523 15.9976C10.3523 16.6792 10.4709 17.3418 10.7062 17.9688C10.838 18.3208 10.8229 18.7086 10.6685 19.0513C10.5123 19.392 10.23 19.6575 9.87801 19.7893L2.82148 22.4231C2.65773 22.4833 2.49021 22.5115 2.32645 22.5115H2.32833Z"/>
    </symbol>

    <symbol fill="inherit" xmlns="http://www.w3.org/2000/svg" viewBox="0 0 32 32" id="rocket">
        <path d="M6.21931 30.5649H2.86697C2.07571 30.5649 1.43353 29.9228 1.43353 29.1317V25.7799C1.43353 23.9053 2.53824 22.1931 4.24881 21.4191C4.96553 21.0924 5.81794 21.4115 6.14477 22.1338C6.47159 22.8543 6.1505 23.7046 5.42996 24.0295C4.74382 24.341 4.30041 25.027 4.30041 25.7799V27.6985H6.21931C6.97234 27.6985 7.65848 27.2551 7.97001 26.5691C8.29493 25.8487 9.14735 25.5296 9.86598 25.8544C10.5865 26.1812 10.9076 27.0297 10.5808 27.7501C9.80673 29.4604 8.09425 30.5649 6.21931 30.5649Z"/>
        <path d="M25.8498 18.5489C32.7991 10.9166 32.0346 2.31167 31.918 1.339C31.8396 0.679725 31.3217 0.161861 30.6623 0.0835123C29.6857 -0.0368768 21.085 -0.79743 13.4496 6.15074L11.5135 5.80486C8.57779 5.28318 5.57522 6.51191 3.85318 8.94071L0.263846 14.0085C-0.101203 14.5245 -0.0859129 15.2162 0.30016 15.715C0.579203 16.0742 0.999678 16.2711 1.43353 16.2711C1.60555 16.2711 1.77947 16.2405 1.94575 16.1774C1.97059 16.1679 3.98697 15.4303 6.98381 15.5487C6.6589 16.3857 6.42763 17.1253 6.26327 17.7253C6.12757 18.2221 6.26709 18.7534 6.63214 19.1184L12.8858 25.371C13.1591 25.6442 13.5241 25.7914 13.8987 25.7914C14.0249 25.7914 14.1529 25.7742 14.2771 25.7398C14.8754 25.5754 15.615 25.3442 16.4502 25.0193C16.5611 27.9909 15.831 30.0356 15.8233 30.0566C15.5978 30.6471 15.7851 31.314 16.284 31.7C16.542 31.8987 16.8516 32 17.1612 32C17.4517 32 17.7422 31.9121 17.9907 31.7363L23.0632 28.1437C25.4905 26.4258 26.7194 23.4218 26.1957 20.4942L25.8479 18.5527L25.8498 18.5489ZM21.0239 7.63363C22.8701 7.63363 24.3686 9.12989 24.3686 10.9778C24.3686 12.8256 22.8701 14.3219 21.0239 14.3219C19.1776 14.3219 17.6792 12.8256 17.6792 10.9778C17.6792 9.12989 19.1776 7.63363 21.0239 7.63363ZM4.68266 12.732L6.19446 10.5994C7.27623 9.07257 9.15881 8.29481 11.0127 8.62732L11.0777 8.63878C9.90229 10.0529 8.96387 11.4708 8.25479 12.7913C6.93985 12.6632 5.71091 12.6403 4.68457 12.7301L4.68266 12.732ZM21.408 25.8028L19.2693 27.3163C19.3611 26.292 19.3381 25.0614 19.2082 23.7467C20.5289 23.0377 21.947 22.0994 23.3613 20.9242L23.3747 20.9968C23.7034 22.8371 22.9313 24.7232 21.4061 25.8028H21.408Z"/>
    </symbol>

    <symbol fill="inherit" xmlns="http://www.w3.org/2000/svg" viewBox="0 0 32 32" id="stars">
        <path d="M4.05025 9.24516C4.18626 9.65321 4.57029 9.92924 5.00031 9.92924C5.43034 9.92924 5.81236 9.65321 5.95037 9.24516L6.79242 6.71884L9.31858 5.87673C9.72661 5.74072 10.0026 5.35867 10.0026 4.92862C10.0026 4.49856 9.72661 4.11651 9.31858 3.9805L6.79242 3.13839L5.95037 0.612076C5.67635 -0.204025 4.32627 -0.204025 4.05225 0.612076L3.2102 3.13839L0.684043 3.9805C0.276017 4.11651 0 4.49856 0 4.92862C0 5.35867 0.276017 5.74072 0.684043 5.87673L3.2102 6.71884L4.05025 9.24516Z"/>
        <path d="M31.0519 15.606L21.9814 12.0195L18.3951 2.94837C17.9411 1.80423 16.059 1.80423 15.605 2.94837L12.0188 12.0195L2.94818 15.606C2.37615 15.832 1.99812 16.386 1.99812 17.0001C1.99812 17.6142 2.37415 18.1683 2.94818 18.3943L12.0188 21.9807L15.605 31.0519C15.831 31.624 16.385 32 16.9991 32C17.6131 32 18.1671 31.624 18.3931 31.0519L21.9794 21.9807L31.0499 18.3943C31.622 18.1683 32 17.6142 32 17.0001C32 16.386 31.626 15.832 31.0519 15.606Z"/>
    </symbol>

    <symbol fill="inherit" xmlns="http://www.w3.org/2000/svg" viewBox="0 0 32 32" id="followers">
        <path d="M10.0674 16.4839C12.9503 16.4839 15.2873 14.1009 15.2873 11.1613C15.2873 8.22171 12.9503 5.83871 10.0674 5.83871C7.18461 5.83871 4.84761 8.22171 4.84761 11.1613C4.84761 14.1009 7.18461 16.4839 10.0674 16.4839Z"/>
        <path d="M21.9307 11.6452C24.8135 11.6452 27.1505 9.26216 27.1505 6.32258C27.1505 3.383 24.8135 1 21.9307 1C19.0478 1 16.7108 3.383 16.7108 6.32258C16.7108 9.26216 19.0478 11.6452 21.9307 11.6452Z"/>
        <path d="M31.7933 20.5445C30.2539 16.3794 26.2906 13.5806 21.9307 13.5806C19.241 13.5806 16.707 14.651 14.7956 16.4452C18.3148 17.8174 21.2208 20.6432 22.595 24.3594C22.8076 24.9323 22.9025 25.5265 22.9405 26.1206C25.2391 26.0239 27.513 25.6174 29.7073 24.8703C30.5728 24.5761 31.2903 23.9277 31.6832 23.0916C32.0628 22.2787 32.1027 21.3729 31.7952 20.5445H31.7933Z"/>
        <path d="M19.93 25.3832C18.3907 21.2181 14.4274 18.4194 10.0674 18.4194C5.70746 18.4194 1.74419 21.2181 0.20482 25.3832C-0.102675 26.2135 -0.0628148 27.1174 0.316809 27.9303C0.707821 28.7665 1.42721 29.4148 2.29275 29.709C4.80775 30.5645 7.42526 31 10.0674 31C12.7096 31 15.3271 30.5645 17.8421 29.709C18.7077 29.4148 19.4252 28.7665 19.8181 27.9303C20.1977 27.1174 20.2375 26.2116 19.93 25.3832Z"/>
    </symbol>

    <symbol fill="inherit" xmlns="http://www.w3.org/2000/svg" viewBox="0 0 32 32" id="heart">
        <path d="M10.3659 19.143L9.38943 17.0952C8.63426 15.5082 8.62868 13.6871 9.37083 12.0964C10.1111 10.5076 11.5266 9.32282 13.249 8.84745C13.7586 8.70666 14.285 8.63536 14.8133 8.63536C16.9207 8.63536 18.8904 9.75614 20.0325 11.537C20.849 10.0395 21.3903 8.3355 21.3903 6.41572C21.4033 2.89978 18.4998 0.0219404 14.8932 0C13.3308 0.020112 11.8484 0.585076 10.6952 1.56508C9.54009 0.585076 8.05207 0.0182836 6.47106 0C2.89052 0.0219404 -0.0129765 2.89978 4.36192e-05 6.41024C4.36192e-05 13.4933 7.2132 17.7406 9.42291 18.8742C9.72051 19.0259 10.0423 19.1046 10.3659 19.143Z"/>
        <path d="M29.859 18.4756C28.0194 17.0934 23.866 16.7899 19.9581 17.7022L17.8916 13.3818C17.2015 11.9392 15.5628 11.0579 14.0023 11.4894C12.0158 12.0379 11.0783 14.1716 11.9153 15.9324L15.9088 24.2989L12.8026 23.7376C11.4466 23.4926 9.99022 24.0101 9.29085 25.1784C8.7347 26.109 8.68634 27.1951 9.13647 28.1403C9.49917 28.9046 10.1465 29.4823 10.9593 29.7712L14.8821 31.1297C16.5468 31.7056 18.2989 32 20.0641 32H24.9318C29.8329 32 32.2268 27.6869 31.9831 24.1746C31.7766 21.1798 31.0624 19.3825 29.8552 18.4774L29.859 18.4756Z"/>
    </symbol>

    <symbol fill="inherit" xmlns="http://www.w3.org/2000/svg" viewBox="0 0 32 32" id="views">
        <path d="M28.1795 12.1397L29.9658 9.25296C30.4037 8.54378 30.1787 7.62025 29.4629 7.18754C28.7452 6.75682 27.8105 6.97719 27.3725 7.68436L25.5335 10.6533C24.1589 9.99018 22.7193 9.47533 21.227 9.11272L21.9022 5.79723C22.0685 4.98389 21.5332 4.19057 20.712 4.02831C19.8909 3.87205 19.0859 4.39091 18.9217 5.20425L18.2344 8.57984C17.4963 8.50572 16.7502 8.46565 15.998 8.46565C15.2458 8.46565 14.4996 8.50572 13.7616 8.57984L13.0742 5.20425C12.908 4.39091 12.101 3.87004 11.2839 4.02831C10.4607 4.19258 9.92748 4.98389 10.0937 5.79723L10.7689 9.11272C9.27664 9.47533 7.83708 9.99018 6.4624 10.6533L4.62341 7.68436C4.18748 6.97719 3.25076 6.75682 2.533 7.18754C1.81728 7.62025 1.59222 8.54579 2.03017 9.25296L3.81644 12.1397C2.61208 12.9451 1.47665 13.8766 0.434486 14.9284C-0.153504 15.5193 -0.143366 16.4729 0.456789 17.0539C1.05492 17.6348 2.018 17.6248 2.60802 17.0318C6.16435 13.4479 10.921 11.4746 16 11.4746C21.079 11.4746 25.8357 13.4479 29.392 17.0318C29.69 17.3323 30.0834 17.4826 30.4787 17.4826C30.862 17.4826 31.2472 17.3404 31.5432 17.0539C32.1434 16.4729 32.1535 15.5213 31.5655 14.9284C30.5213 13.8766 29.3879 12.9451 28.1836 12.1397H28.1795Z"/>
        <path d="M15.998 28C19.9172 28 23.0944 24.8608 23.0944 20.9884C23.0944 17.116 19.9172 13.9768 15.998 13.9768C12.0787 13.9768 8.90154 17.116 8.90154 20.9884C8.90154 24.8608 12.0787 28 15.998 28Z"/>
    </symbol>

    <symbol fill="inherit" xmlns="http://www.w3.org/2000/svg" viewBox="0 0 24 24" id="telegram">
        <path d="M23.4146 0.584464C22.882 0.0517998 22.1063 -0.132465 21.3941 0.0967046L1.38563 6.52893C0.625426 6.77359 0.0990093 7.41774 0.0123054 8.21209C-0.0743985 9.00489 0.301834 9.74814 0.990821 10.1492L8.07577 14.282L14.1961 8.15944C14.6498 7.70575 15.3852 7.70575 15.8389 8.15944C16.2925 8.61314 16.2925 9.34865 15.8389 9.80234L9.71695 15.9249L13.8493 23.0105C14.2132 23.633 14.8557 24 15.5633 24C15.6376 24 15.7135 23.9954 15.7893 23.9876C16.582 23.9009 17.2277 23.3744 17.4708 22.6157L23.9039 2.60673C24.133 1.8898 23.9457 1.11558 23.4146 0.584464Z"/>
    </symbol>

    <symbol fill="inherit" xmlns="http://www.w3.org/2000/svg" viewBox="0 0 24 24" id="star">
        <path d="M23.9465 9.04877C23.8145 8.62244 23.4619 8.31096 23.0389 8.24646L16.1087 7.19088L13.0095 0.60409C12.6315 -0.201363 11.37 -0.201363 10.992 0.60409L7.89284 7.1893L0.962572 8.24489C0.539555 8.30939 0.187041 8.62087 0.0550364 9.04719C-0.0769688 9.47352 0.0325354 9.94389 0.340047 10.2569L5.35474 15.3823L4.1697 22.6203C4.09769 23.064 4.2702 23.5107 4.61671 23.775C4.96323 24.0378 5.42374 24.0724 5.80176 23.8647L12 20.4462L18.1982 23.8647C18.3632 23.9559 18.5418 24 18.7218 24C18.9543 24 19.1868 23.9245 19.3833 23.775C19.7298 23.5107 19.9038 23.064 19.8303 22.6203L18.6453 15.3823L23.66 10.2569C23.9675 9.94389 24.077 9.47352 23.945 9.04719L23.9465 9.04877Z"/>
    </symbol>

    <symbol fill="inherit" xmlns="http://www.w3.org/2000/svg" viewBox="0 0 25 24" id="usa">
        <g clip-path="url(#clip0_22_1617)">
            <path d="M19.2571 1.84001C17.3772 0.68 15.2172 0 12.8571 0V1.84001H19.2571Z" fill="#ED4C5C"/>
            <path d="M12.8571 3.67985H21.4971C20.8171 2.99985 20.0571 2.35985 19.2571 1.83984H12.8571V3.67985Z" fill="white"/>
            <path d="M12.8571 5.51968H22.9771C22.5372 4.83969 22.0572 4.23969 21.5371 3.67969H12.8571V5.51968Z" fill="#ED4C5C"/>
            <path d="M12.8571 7.35954H23.9371C23.6571 6.71953 23.3371 6.07954 22.9771 5.51953H12.8571V7.35954Z" fill="white"/>
            <path d="M12.8571 9.20035H24.5371C24.3771 8.56035 24.1771 7.96035 23.9371 7.36035H12.8571V9.20035Z" fill="#ED4C5C"/>
            <path d="M12.8571 11.0802H24.8172C24.7771 10.4402 24.6571 9.84023 24.5371 9.24023H12.8571V11.0802Z" fill="white"/>
            <path d="M24.8172 11.0801H12.8572V12.0001H0.857147C0.857147 12.3201 0.857147 12.6001 0.897147 12.9201H24.8172C24.8571 12.6001 24.8571 12.3201 24.8571 12.0001C24.8571 11.6801 24.8571 11.3601 24.8172 11.0801Z" fill="#ED4C5C"/>
            <path d="M1.17575 14.7599H24.5358C24.6958 14.1599 24.7758 13.5599 24.8158 12.9199H0.895752C0.935753 13.5199 1.05575 14.1599 1.17575 14.7599Z" fill="white"/>
            <path d="M1.77701 16.5999H23.9371C24.1771 15.9999 24.377 15.3999 24.5371 14.7598H1.177C1.337 15.3999 1.53701 15.9999 1.77701 16.5999Z" fill="#ED4C5C"/>
            <path d="M2.73811 18.4396H22.9781C23.3381 17.8396 23.6582 17.2396 23.9381 16.5996H1.77811C2.0581 17.2396 2.37811 17.8396 2.73811 18.4396Z" fill="white"/>
            <path d="M4.17767 20.2804H21.5378C22.0577 19.7205 22.5777 19.0804 22.9778 18.4404H2.73767C3.13767 19.1205 3.65766 19.7205 4.17767 20.2804Z" fill="#ED4C5C"/>
            <path d="M6.41701 22.1202H19.297C20.137 21.6003 20.857 20.9603 21.5371 20.2803H4.177C4.85701 21.0003 5.61702 21.6003 6.41701 22.1202Z" fill="white"/>
            <path d="M12.856 24.0002C15.216 24.0002 17.416 23.3201 19.296 22.1201H6.41599C8.29599 23.3201 10.496 24.0002 12.856 24.0002Z" fill="#ED4C5C"/>
            <path d="M6.45715 1.84001C5.61715 2.36 4.85716 3 4.17715 3.68C3.61715 4.24001 3.13715 4.88 2.73715 5.52001C2.37715 6.12001 2.01715 6.72001 1.77715 7.36001C1.53715 7.96001 1.33715 8.56001 1.17715 9.20002C1.01715 9.80002 0.937148 10.4 0.897147 11.04C0.857147 11.36 0.857147 11.68 0.857147 12H12.8572V0C10.4972 0 8.33716 0.68 6.45715 1.84001Z" fill="#428BC1"/>
            <path d="M10.0569 0.399414L10.2569 0.999415H10.8569L10.3769 1.39942L10.5369 1.99942L10.0569 1.63942L9.57692 1.99942L9.73691 1.39942L9.25691 0.999415H9.85691L10.0569 0.399414ZM11.6569 2.79942L11.8569 3.39942H12.4569L11.9769 3.79942L12.1369 4.39942L11.6569 4.03942L11.1769 4.39942L11.3369 3.79942L10.8569 3.39942H11.4569L11.6569 2.79942ZM8.45691 2.79942L8.65691 3.39942H9.25691L8.77691 3.79942L8.93691 4.39942L8.45691 4.03942L7.97691 4.39942L8.13692 3.79942L7.65692 3.39942H8.25692L8.45691 2.79942ZM10.0569 5.19942L10.2569 5.79942H10.8569L10.3769 6.19942L10.5369 6.79943L10.0569 6.43942L9.57692 6.79943L9.73691 6.19942L9.25691 5.79942H9.85691L10.0569 5.19942ZM6.85691 5.19942L7.0569 5.79942H7.65692L7.1769 6.19942L7.33691 6.79943L6.85691 6.43942L6.37691 6.79943L6.53691 6.19942L6.05691 5.79942H6.65691L6.85691 5.19942ZM3.65691 5.19942L3.8569 5.79942H4.4569L3.9769 6.19942L4.13691 6.79943L3.65691 6.43942L3.17691 6.79943L3.3369 6.19942L2.8569 5.79942H3.4569L3.65691 5.19942ZM11.6569 7.59942L11.8569 8.19942H12.4569L11.9769 8.59943L12.1369 9.19943L11.6569 8.83943L11.1769 9.19943L11.3369 8.59943L10.8569 8.19942H11.4569L11.6569 7.59942ZM8.45691 7.59942L8.65691 8.19942H9.25691L8.77691 8.59943L8.93691 9.19943L8.45691 8.83943L7.97691 9.19943L8.13692 8.59943L7.65692 8.19942H8.25692L8.45691 7.59942ZM5.2569 7.59942L5.45691 8.19942H6.05691L5.57691 8.59943L5.7369 9.19943L5.2569 8.83943L4.7769 9.19943L4.93691 8.59943L4.4569 8.19942H5.05691L5.2569 7.59942ZM10.0569 9.99943L10.2569 10.5994H10.8569L10.3769 10.9994L10.5369 11.5994L10.0569 11.2394L9.57692 11.5994L9.73691 10.9994L9.25691 10.5994H9.85691L10.0569 9.99943ZM6.85691 9.99943L7.0569 10.5994H7.65692L7.1769 10.9994L7.33691 11.5994L6.85691 11.2394L6.37691 11.5994L6.53691 10.9994L6.05691 10.5994H6.65691L6.85691 9.99943ZM3.65691 9.99943L3.8569 10.5994H4.4569L3.9769 10.9994L4.13691 11.5994L3.65691 11.2394L3.17691 11.5994L3.3369 10.9994L2.8569 10.5994H3.4569L3.65691 9.99943ZM4.7769 4.39942L5.2569 4.03942L5.7369 4.39942L5.53691 3.79942L6.01691 3.39942H5.41691L5.2569 2.79942L5.05691 3.39942H4.49691L4.97691 3.75942L4.7769 4.39942ZM1.5769 9.19943L2.0569 8.83943L2.5369 9.19943L2.33691 8.59943L2.81691 8.19942H2.2569L2.0569 7.59942L1.85691 8.19942H1.4569C1.4569 8.23943 1.4169 8.27943 1.4169 8.31942L1.73691 8.55942L1.5769 9.19943Z" fill="white"/>
        </g>
        <defs>
            <clipPath id="clip0_22_1617">
                <rect width="24" height="24" fill="white" transform="translate(0.857147)"/>
            </clipPath>
        </defs>
    </symbol>

    <symbol fill="inherit" xmlns="http://www.w3.org/2000/svg" viewBox="0 0 13 12" id="verify">
        <path d="M12.1428 6.0007C12.1428 5.4516 11.6999 5.00715 11.1509 5.00445C11.4023 4.89843 11.5884 4.70136 11.6849 4.46757C11.7827 4.23243 11.7909 3.95925 11.6849 3.70508C11.4756 3.19813 10.8954 2.95618 10.3872 3.16413C10.5788 2.96977 10.6752 2.71697 10.6752 2.46279C10.6752 2.20728 10.5774 1.95311 10.3831 1.75876C9.99585 1.37003 9.36671 1.37003 8.97808 1.75605C9.08137 1.50324 9.07314 1.23142 8.97671 0.997629C8.87882 0.762494 8.69136 0.564065 8.43724 0.458042C7.9304 0.248732 7.35017 0.487942 7.13819 0.992186C7.13683 0.718999 7.0254 0.471636 6.84604 0.292222C6.66531 0.111456 6.41665 0 6.14216 0C5.59318 0 5.14884 0.44308 5.14613 0.992186C5.04014 0.740745 4.84311 0.554547 4.60938 0.456675C4.3743 0.358816 4.10117 0.350661 3.84706 0.456675C3.34022 0.667344 3.09833 1.24633 3.30623 1.75467C3.11191 1.56168 2.85918 1.46653 2.60506 1.46653C2.34961 1.46653 2.09549 1.56439 1.90118 1.75875C1.51391 2.14611 1.51255 2.77539 1.89847 3.16412C1.64572 3.06082 1.3753 3.06897 1.14022 3.16547C0.905143 3.26333 0.706759 3.45089 0.600759 3.70506C0.391497 4.21201 0.630654 4.79238 1.13478 5.0044C0.861657 5.00577 0.614351 5.11721 0.434978 5.29663C0.254253 5.47739 0.142822 5.72611 0.142822 6.00066C0.142822 6.54976 0.585801 6.99421 1.13341 6.99692C0.882032 7.10294 0.695876 7.3 0.599393 7.5338C0.501556 7.77029 0.494763 8.04212 0.599393 8.29629C0.810015 8.8032 1.38887 9.04517 1.89709 8.83723C1.70414 9.03163 1.60902 9.2844 1.60902 9.53854C1.60902 9.79406 1.70685 10.0483 1.90117 10.2426C2.28845 10.6299 2.91758 10.6313 3.30622 10.2453C3.20295 10.4981 3.2111 10.7699 3.30757 11.0037C3.40542 11.2389 3.59293 11.4373 3.84704 11.5433C4.35388 11.754 4.93548 11.5134 5.14745 11.0079C5.14881 11.281 5.26024 11.5284 5.43961 11.7078C5.62033 11.8886 5.869 12 6.14348 12C6.69247 12 7.13681 11.5569 7.13952 11.0079C7.2455 11.2593 7.44253 11.4454 7.67627 11.5433C7.91135 11.6412 8.18448 11.648 8.43859 11.5433C8.94542 11.334 9.18731 10.7536 8.97945 10.2453C9.17377 10.437 9.42645 10.5334 9.68059 10.5334C9.93602 10.5334 10.1902 10.4356 10.3845 10.2412C10.7731 9.85251 10.7731 9.22457 10.3871 8.83586C10.6399 8.93914 10.9117 8.931 11.1455 8.83449C11.3805 8.73669 11.5789 8.54911 11.6849 8.29494C11.8955 7.78798 11.655 7.20762 11.1509 6.9956C11.424 6.99423 11.6713 6.88279 11.8507 6.70337C12.0314 6.52396 12.1428 6.27523 12.1428 6.0007ZM8.89254 5.05609C8.79062 5.15803 8.68871 5.25996 8.58679 5.36191C8.05277 5.89605 7.51875 6.43019 6.98607 6.96299C6.64092 7.30822 6.29578 7.65343 5.94926 8.00003C5.6544 8.29497 5.18831 8.28544 4.88937 8.00547C4.84317 7.96197 4.79833 7.91985 4.75213 7.87771C4.301 7.45501 3.84987 7.03231 3.39871 6.61097C3.10112 6.33098 3.112 5.83489 3.39328 5.55084C3.68678 5.25454 4.1556 5.26677 4.45317 5.54541C4.49937 5.58754 4.54422 5.63103 4.59042 5.67316C4.85947 5.92597 5.12988 6.17877 5.39893 6.43022C5.86228 5.96539 6.32702 5.50191 6.79038 5.03844C7.13553 4.69321 7.48066 4.348 7.82719 4.0014C8.11661 3.71191 8.59628 3.70784 8.88705 3.99597C9.17651 4.28138 9.18191 4.7666 8.89254 5.05609Z"/>
    </symbol>

    <symbol fill="inherit" xmlns="http://www.w3.org/2000/svg" viewBox="0 0 24 14" id="arrow-right">
        <path d="M18.3981 6.09776V5.90282V3.9161L21.405 7.00003L18.3981 10.084V8.09776V7.90282V6.09776ZM22.0857 7.69815C22.0854 7.69781 22.085 7.69747 22.0847 7.69712L22.0857 7.69815ZM22.0847 6.30294C22.085 6.3026 22.0854 6.30226 22.0857 6.30192L22.0847 6.30294ZM1.07837 7.00029V6.09776V7.00029Z" stroke="#080707" stroke-width="4"/>
    </symbol>

    <symbol fill="inherit" xmlns="http://www.w3.org/2000/svg" viewBox="0 0 8 8" id="dropdown">
        <path d="M4 6.66699L8 2.00033H0L4 6.66699Z"/>
    </symbol>

    <symbol fill="inherit" xmlns="http://www.w3.org/2000/svg" viewBox="0 0 12 12" id="arrow-diagonal">
        <path fill-rule="evenodd" clip-rule="evenodd" d="M9.41898 1.51193H2.42446V0H12V9.57554H10.4881V2.58102L1.06909 12L0 10.9309L9.41898 1.51193Z"/>
    </symbol>

    <symbol fill="inherit" xmlns="http://www.w3.org/2000/svg" viewBox="0 0 24 24" id="instagram">
        <path fill-rule="evenodd" clip-rule="evenodd" d="M0 12C0 5.3728 5.3728 0 12 0C18.6272 0 24 5.3728 24 12C24 18.6272 18.6272 24 12 24C5.3728 24 0 18.6272 0 12ZM12 5.44147C14.136 5.44147 14.389 5.44963 15.2327 5.48812C16.0127 5.52372 16.4362 5.65401 16.7182 5.76357C17.0656 5.89182 17.38 6.09631 17.638 6.36201C17.9037 6.62007 18.1082 6.93438 18.2364 7.28186C18.346 7.56376 18.4763 7.98735 18.5119 8.76735C18.5504 9.61094 18.5585 9.86395 18.5585 12.0001C18.5585 14.1363 18.5504 14.3892 18.5119 15.2329C18.4763 16.0129 18.346 16.4364 18.2364 16.7184C18.1033 17.0634 17.8995 17.3767 17.638 17.6382C17.3765 17.8997 17.0632 18.1036 16.7182 18.2367C16.4363 18.3462 16.0127 18.4765 15.2327 18.5121C14.3893 18.5506 14.1363 18.5588 12 18.5588C9.86364 18.5588 9.61074 18.5506 8.76721 18.5121C7.98723 18.4765 7.56367 18.3462 7.28174 18.2367C6.93426 18.1084 6.61995 17.9039 6.3619 17.6382C6.0962 17.3802 5.89171 17.0658 5.76346 16.7184C5.65391 16.4365 5.52358 16.0129 5.48801 15.2329C5.44953 14.3893 5.44136 14.1363 5.44136 12.0001C5.44136 9.86395 5.44953 9.61101 5.48801 8.76735C5.52361 7.98735 5.65391 7.56379 5.76346 7.28186C5.89172 6.93437 6.09624 6.62004 6.36196 6.36198C6.62001 6.09628 6.93433 5.89179 7.2818 5.76354C7.5637 5.65398 7.98729 5.52366 8.76728 5.48809C9.61087 5.4496 9.86387 5.44144 12 5.44144L12 5.44147ZM12 4C9.82734 4 9.55481 4.00921 8.70167 4.04814C7.85014 4.08701 7.26862 4.22223 6.75977 4.42001C6.22597 4.62088 5.74242 4.93578 5.34283 5.34274C4.93578 5.74231 4.62079 6.22587 4.41984 6.7597C4.22223 7.26859 4.08701 7.8501 4.0483 8.70164C4.00921 9.5548 4 9.82733 4 12C4 14.1727 4.00921 14.4452 4.0483 15.2984C4.08717 16.1499 4.22239 16.7314 4.42016 17.2403C4.62104 17.7741 4.93593 18.2577 5.34289 18.6573C5.74248 19.0642 6.22604 19.3791 6.75983 19.58C7.26872 19.7778 7.85023 19.913 8.70173 19.9519C9.55501 19.9908 9.82744 20 12.0001 20C14.1727 20 14.4453 19.9908 15.2984 19.9519C16.15 19.913 16.7315 19.7778 17.2403 19.58C17.7717 19.3745 18.2544 19.0602 18.6573 18.6573C19.0602 18.2544 19.3745 17.7717 19.58 17.2403C19.7778 16.7314 19.913 16.1499 19.9519 15.2984C19.9908 14.4451 20 14.1727 20 12C20 9.82736 19.9908 9.5548 19.9519 8.70164C19.913 7.8501 19.7778 7.26859 19.58 6.75973C19.3791 6.22593 19.0642 5.74237 18.6573 5.34277C18.2577 4.93573 17.7741 4.62077 17.2402 4.41985C16.7313 4.22223 16.1498 4.08701 15.2983 4.0483C14.4451 4.00921 14.1726 4 12 4ZM12 7.89189C11.1874 7.89189 10.3932 8.13283 9.71762 8.58424C9.04205 9.03564 8.5155 9.67725 8.20457 10.4279C7.89364 11.1786 7.81229 12.0046 7.9708 12.8015C8.12931 13.5984 8.52057 14.3304 9.09509 14.9049C9.66962 15.4794 10.4016 15.8707 11.1985 16.0292C11.9954 16.1877 12.8214 16.1064 13.572 15.7954C14.3227 15.4845 14.9643 14.9579 15.4157 14.2824C15.8671 13.6068 16.108 12.8125 16.108 12C16.108 10.9105 15.6752 9.86556 14.9048 9.09514C14.1344 8.32471 13.0895 7.89189 12 7.89189ZM12 14.6667C11.4725 14.6667 10.957 14.5103 10.5185 14.2172C10.0799 13.9242 9.73816 13.5077 9.53633 13.0205C9.3345 12.5332 9.2817 11.997 9.3846 11.4798C9.48749 10.9625 9.74147 10.4873 10.1144 10.1144C10.4873 9.74146 10.9625 9.48749 11.4798 9.3846C11.997 9.28171 12.5332 9.33452 13.0205 9.53636C13.5077 9.73819 13.9242 10.08 14.2172 10.5185C14.5102 10.957 14.6666 11.4726 14.6666 12C14.6666 12.7073 14.3857 13.3855 13.8856 13.8856C13.3855 14.3857 12.7072 14.6667 12 14.6667ZM17.2303 7.72959C17.2303 8.25978 16.8005 8.68958 16.2703 8.68958C15.7402 8.68958 15.3104 8.25978 15.3104 7.72959C15.3104 7.1994 15.7402 6.7696 16.2703 6.7696C16.8005 6.7696 17.2303 7.1994 17.2303 7.72959Z"/>
    </symbol>

    <symbol fill="inherit" xmlns="http://www.w3.org/2000/svg" viewBox="0 0 24 24" id="telegram">
        <path fill-rule="evenodd" clip-rule="evenodd" d="M12 0C5.3728 0 0 5.3728 0 12C0 18.6272 5.3728 24 12 24C18.6272 24 24 18.6272 24 12C24 5.3728 18.6272 0 12 0ZM17.5622 8.16096C17.3817 10.0584 16.6003 14.6629 16.2028 16.7883C16.0345 17.6878 15.7031 17.9892 15.3825 18.0187C14.6859 18.0829 14.1567 17.558 13.4817 17.1155C12.4256 16.4231 11.8289 15.9924 10.8037 15.3169C9.61874 14.5359 10.387 14.107 11.062 13.4058C11.2387 13.222 14.3091 10.4292 14.3686 10.1761C14.3761 10.1442 14.3831 10.0261 14.3128 9.96373C14.2425 9.90139 14.1389 9.92295 14.0644 9.93983C13.9584 9.96373 12.2709 11.0789 9.00282 13.2853C8.52373 13.6144 8.09015 13.7742 7.70108 13.7662C7.27267 13.7569 6.44859 13.5239 5.83592 13.3247C5.08451 13.0805 4.48735 12.9511 4.53938 12.5363C4.56607 12.3202 4.86373 12.0994 5.43189 11.8735C8.93015 10.3491 11.2626 9.34451 12.4298 8.85892C15.7626 7.4728 16.455 7.23189 16.9064 7.22391C17.4717 7.21406 17.6081 7.68048 17.5622 8.16096Z" fill="#495059"/>
    </symbol>

    <symbol fill="inherit" xmlns="http://www.w3.org/2000/svg" viewBox="0 0 24 12" id="visa">
        <path fill-rule="evenodd" clip-rule="evenodd" d="M20.1666 0.947975C19.5893 0.732048 18.6847 0.5 17.5546 0.5C14.6748 0.5 12.6456 1.94574 12.6285 4.01635C12.6128 5.54863 14.0767 6.40174 15.1826 6.9125C16.3167 7.43386 16.6985 7.7673 16.6925 8.23351C16.6853 8.9479 15.7871 9.27412 14.9494 9.27412C13.7826 9.27412 13.1632 9.11334 12.2058 8.71543L11.8299 8.54574L11.4209 10.9315C12.1024 11.2285 13.3603 11.4868 14.6676 11.5C17.7316 11.5 19.7209 10.0712 19.743 7.85935C19.7536 6.64693 18.9776 5.72426 17.2966 4.96448C16.2771 4.47111 15.6534 4.1415 15.6603 3.64261C15.6603 3.20058 16.1877 2.72588 17.3285 2.72588C18.2829 2.71103 18.9725 2.91847 19.5102 3.13482L19.7719 3.257L20.1666 0.947975ZM6.68266 11.3418L8.50501 0.685831H11.4193L9.59604 11.3418H6.68266ZM25.389 0.696254H27.6413L30 11.3446H27.2952C27.2952 11.3446 27.0283 10.1211 26.9411 9.74824C26.7156 9.74824 25.7742 9.74705 24.8894 9.74593L24.877 9.74591C24.0973 9.74493 23.3644 9.744 23.2082 9.744C23.095 10.032 22.5948 11.3446 22.5948 11.3446H19.5337L23.8621 1.5799C24.1694 0.885456 24.6909 0.696254 25.389 0.696254ZM24.0464 7.56439C24.2878 6.95055 25.2081 4.5851 25.2081 4.5851C25.1996 4.59897 25.2563 4.45228 25.3337 4.25198L25.3337 4.25186C25.4149 4.04178 25.5188 3.77279 25.5942 3.56825L25.7909 4.48711C25.7909 4.48711 26.3494 7.0303 26.4664 7.56439H24.0464ZM1.3849 7.96003L4.23784 0.693585H7.32491L2.73687 11.3288L-0.347214 11.333L-2.95581 2.01291C-1.10578 2.93601 0.549705 4.78051 1.08053 6.48333L1.3849 7.96003Z" fill="white"/>
        <path fill-rule="evenodd" clip-rule="evenodd" d="M-1.26255 0.686523H-5.96297L-6 0.907966C-2.34337 1.79077 0.0762267 3.92204 1.08042 6.48348L0.0583482 1.58587C-0.117886 0.910935 -0.629984 0.709855 -1.26255 0.686523Z" fill="#F9A51A"/>
    </symbol>

    <symbol fill="inherit" xmlns="http://www.w3.org/2000/svg" viewBox="0 0 24 18" id="mastercard">
        <path fill-rule="evenodd" clip-rule="evenodd" d="M17.8065 18C22.8839 18 27 13.9706 27 9C27 4.02944 22.8839 0 17.8065 0C12.729 0 8.61292 4.02944 8.61292 9C8.61292 13.9706 12.729 18 17.8065 18Z" fill="#F79E1B"/>
        <path fill-rule="evenodd" clip-rule="evenodd" d="M6.19355 18C11.271 18 15.3871 13.9706 15.3871 9C15.3871 4.02944 11.271 0 6.19355 0C1.11609 0 -3 4.02944 -3 9C-3 13.9706 1.11609 18 6.19355 18Z" fill="#EB001B"/>
        <path fill-rule="evenodd" clip-rule="evenodd" d="M11.9998 2.02197C9.93284 3.67231 8.61292 6.18525 8.61292 8.99999C8.61292 11.8147 9.93284 14.3277 11.9998 15.978C14.0668 14.3277 15.3867 11.8147 15.3867 8.99999C15.3867 6.18525 14.0668 3.67231 11.9998 2.02197Z" fill="#FF5F00"/>
    </symbol>

    <symbol fill="inherit" xmlns="http://www.w3.org/2000/svg" viewBox="0 0 24 18" id="skrill">
        <path d="M19.0914 2.65683C19.0914 1.72345 19.8267 0.966309 20.7322 0.966309C21.6392 0.966309 22.374 1.72345 22.374 2.65683C22.374 3.59076 21.6392 4.34626 20.7322 4.34626C19.8267 4.34626 19.0914 3.59076 19.0914 2.65683Z" fill="#862165"/>
        <path d="M23.8091 2.34885L27.137 1.73556V14.8924H23.8091V2.34885Z" fill="#862165"/>
        <path d="M28.6699 2.34885V14.8924H32V1.73556L28.6699 2.34885Z" fill="#862165"/>
        <path d="M19.0684 5.2692V14.8924H22.398V5.2692H19.0684Z" fill="#862165"/>
        <path d="M12.5511 9.4788C12.5511 6.65229 14.114 5.23025 17.1903 5.12813C17.1903 5.12813 17.7459 5.10617 18.0739 5.17809V7.99088C16.1238 8.06006 15.9084 8.78535 15.9084 10.477V14.8924H12.5511V9.4788Z" fill="#862165"/>
        <path d="M8.14017 5.30359C8.02097 5.62581 7.47844 7.09225 6.26087 8.60856V1.73556L2.82465 2.4356V14.8924H6.26087V11.0414C7.25591 12.5787 7.74756 14.8924 7.74756 14.8924H11.8626C11.4557 13.1497 9.67523 9.93726 9.67523 9.93726C11.2739 7.84977 11.9751 5.62667 12.0871 5.25826H8.15709C8.15293 5.2691 8.1473 5.28433 8.14017 5.30359Z" fill="#862165"/>
        <path d="M-4.33289 5.63381C-4.33289 6.53699 -3.35812 6.60233 -2.93739 6.63033C0.148484 6.84336 1.98764 8.39882 1.98764 10.7921C1.98764 12.9038 0.343118 15.0335 -3.32559 15.0335C-5.02664 15.0335 -6.47813 14.8611 -7.76537 14.5125V11.4389C-6.90579 11.8029 -5.48949 12.1851 -4.03054 12.1851C-2.69903 12.1851 -1.90717 11.7316 -1.90717 10.9607C-1.90717 10.0307 -2.86749 9.97008 -3.23576 9.94684L-3.23974 9.94659C-7.53715 9.64516 -8 7.0273 -8 5.91602C-8 3.98611 -6.67009 1.73556 -2.9166 1.73556C-0.739366 1.73556 0.434301 2.0853 1.44533 2.44932L1.49599 2.46524V5.45043L1.45813 5.43945C1.05233 5.26265 0.57561 5.08915 0.57561 5.08915C-0.280777 4.82506 -1.47844 4.54395 -2.40415 4.54395C-2.93046 4.54395 -4.33289 4.54395 -4.33289 5.63381Z" fill="#862165"/>
    </symbol>

    <svg fill="inherit" xmlns="http://www.w3.org/2000/svg" viewBox="0 0 24 24" id="question">
        <path fill-rule="evenodd" clip-rule="evenodd" d="M11.75 3.5C7.19321 3.5 3.5 7.19321 3.5 11.75C3.5 16.3068 7.19321 20 11.75 20C16.3068 20 20 16.3068 20 11.75C20 7.19321 16.3068 3.5 11.75 3.5ZM2 11.75C2 6.36479 6.36479 2 11.75 2C17.1352 2 21.5 6.36479 21.5 11.75C21.5 17.1352 17.1352 21.5 11.75 21.5C6.36479 21.5 2 17.1352 2 11.75ZM9 9.583C9 8.06379 10.2308 6.833 11.75 6.833C13.2692 6.833 14.5 8.06379 14.5 9.583C14.5 10.7772 13.7217 11.4069 13.1802 11.7719L13.1793 11.7725C12.7217 12.08 12.5 12.3273 12.5 12.75V13C12.5 13.4142 12.1642 13.75 11.75 13.75C11.3358 13.75 11 13.4142 11 13V12.75C11 11.5389 11.788 10.9002 12.3424 10.5277C12.7885 10.2269 13 9.98864 13 9.583C13 8.89221 12.4408 8.333 11.75 8.333C11.0592 8.333 10.5 8.89221 10.5 9.583C10.5 9.99721 10.1642 10.333 9.75 10.333C9.33579 10.333 9 9.99721 9 9.583ZM10.75 16.0027C10.7474 15.4465 11.1987 15 11.749 15C12.3003 15 12.75 15.4458 12.75 16C12.75 16.5522 12.3022 17 11.75 17C11.1987 17 10.7515 16.5537 10.75 16.0027ZM11.25 16.0018L10.75 16.0054C10.75 16.0045 10.75 16.0036 10.75 16.0027C10.75 16.0018 10.75 16.0009 10.75 16H11.25C11.25 16.0006 11.25 16.0012 11.25 16.0018Z" fill="white"/>
    </svg>

    <svg xmlns="http://www.w3.org/2000/svg" viewBox="0 0 24 24" id="btc">
        <path d="M6 1.6077C9.71281 -0.535899 14.2872 -0.535898 18 1.6077C21.7128 3.75129 24 7.71281 24 12C24 16.2872 21.7128 20.2487 18 22.3923C14.2872 24.5359 9.71281 24.5359 6 22.3923C2.28719 20.2487 0 16.2872 0 12C0 7.71281 2.28719 3.75129 6 1.6077Z" fill="url(#paint0_linear_124_782)"/>
        <path d="M15.9766 10.8976C16.1534 9.71549 15.2534 9.08006 14.0228 8.65617L14.422 7.05489L13.4473 6.81201L13.0586 8.37112C12.8024 8.30721 12.5392 8.24699 12.2776 8.18729L12.6691 6.61788L11.695 6.375L11.2955 7.97575C11.0835 7.92747 10.8752 7.87976 10.6731 7.82948L10.6742 7.82444L9.33005 7.48877L9.07075 8.52986C9.07075 8.52986 9.79393 8.69563 9.77869 8.70584C10.1734 8.80435 10.2448 9.06565 10.2329 9.27275L9.77817 11.097C9.80535 11.1039 9.84061 11.1139 9.87951 11.1295C9.84699 11.1214 9.81238 11.1126 9.77648 11.104L9.13905 13.6595C9.09081 13.7794 8.96837 13.9594 8.6924 13.8911C8.70217 13.9052 7.98394 13.7143 7.98394 13.7143L7.5 14.83L8.76847 15.1462C9.00445 15.2054 9.2357 15.2673 9.46343 15.3256L9.06007 16.9452L10.0337 17.1881L10.4331 15.5856C10.6991 15.6578 10.9572 15.7244 11.2099 15.7872L10.8118 17.3821L11.7866 17.625L12.1899 16.0084C13.8521 16.323 15.1019 16.1961 15.6279 14.6927C16.0518 13.4823 15.6068 12.7841 14.7324 12.3289C15.3693 12.182 15.8487 11.7629 15.9766 10.8976ZM13.7495 14.0205C13.4483 15.2309 11.4103 14.5766 10.7496 14.4125L11.2848 12.2668C11.9455 12.4318 14.0643 12.7582 13.7495 14.0205ZM14.051 10.8801C13.7762 11.9811 12.08 11.4217 11.5297 11.2845L12.015 9.33849C12.5652 9.47565 14.3372 9.73164 14.051 10.8801Z" fill="white"/>
        <defs>
            <linearGradient id="paint0_linear_124_782" x1="12" y1="0" x2="12" y2="24" gradientUnits="userSpaceOnUse">
                <stop stop-color="#F4BA45"/>
                <stop offset="1" stop-color="#F19C3B"/>
            </linearGradient>
        </defs>
    </svg>

    <svg xmlns="http://www.w3.org/2000/svg" viewBox="0 0 24 24" id="eth">
        <g opacity="0.3" filter="url(#filter0_f_67_1320)">
            <path d="M20 11.7321C21.8564 10.6603 24.1436 10.6603 26 11.7321L26.9282 12.268C28.7846 13.3398 29.9282 15.3205 29.9282 17.4641V18.5359C29.9282 20.6795 28.7846 22.6603 26.9282 23.7321L26 24.268C24.1436 25.3398 21.8564 25.3398 20 24.268L19.0718 23.7321C17.2154 22.6603 16.0718 20.6795 16.0718 18.5359V17.4641C16.0718 15.3205 17.2154 13.3398 19.0718 12.268L20 11.7321Z" fill="#451FAD"/>
        </g>
        <g opacity="0.4" filter="url(#filter1_f_67_1320)">
            <path d="M20 16.7321C21.8564 15.6603 24.1436 15.6603 26 16.7321L27.7943 17.768C29.6507 18.8398 30.7943 20.8205 30.7943 22.9641V25.0359C30.7943 27.1795 29.6507 29.1603 27.7943 30.2321L26 31.268C24.1436 32.3398 21.8564 32.3398 20 31.268L18.2058 30.2321C16.3494 29.1603 15.2058 27.1795 15.2058 25.0359V22.9641C15.2058 20.8205 16.3494 18.8398 18.2058 17.768L20 16.7321Z" fill="#451FAD"/>
        </g>
        <path d="M17.8038 5.00021C21.0192 3.14381 24.9807 3.14381 28.1961 5.00022V5.00022C31.4115 6.85662 33.3923 10.2874 33.3923 14.0002V14.0002C33.3923 17.713 31.4115 21.1438 28.1961 23.0002V23.0002C24.9807 24.8566 21.0192 24.8566 17.8038 23.0002V23.0002C14.5884 21.1438 12.6077 17.713 12.6077 14.0002V14.0002C12.6077 10.2874 14.5884 6.85662 17.8038 5.00021V5.00021Z" fill="url(#paint0_linear_67_1320)"/>
        <path d="M19.6251 14.104L23.0779 8.375V8.37772L23.0787 8.375L26.5309 14.1033L26.5328 14.1041L23.08 16.1451V16.1444L23.0787 16.1452L23.0779 16.1444V16.1451L19.6251 14.104Z" fill="white"/>
        <path d="M23.0779 19.6226V19.625L19.625 14.7593L23.0779 16.7992V16.8002L23.0787 16.7992L26.5336 14.7593L23.0787 19.625L23.0779 19.6226Z" fill="white"/>
        <defs>
            <filter id="filter0_f_67_1320" x="10.0718" y="4.92822" width="25.8564" height="26.1436" filterUnits="userSpaceOnUse" color-interpolation-filters="sRGB">
                <feFlood flood-opacity="0" result="BackgroundImageFix"/>
                <feBlend mode="normal" in="SourceGraphic" in2="BackgroundImageFix" result="shape"/>
                <feGaussianBlur stdDeviation="3" result="effect1_foregroundBlur_67_1320"/>
            </filter>
            <filter id="filter1_f_67_1320" x="0.205811" y="0.928223" width="45.5885" height="46.1436" filterUnits="userSpaceOnUse" color-interpolation-filters="sRGB">
                <feFlood flood-opacity="0" result="BackgroundImageFix"/>
                <feBlend mode="normal" in="SourceGraphic" in2="BackgroundImageFix" result="shape"/>
                <feGaussianBlur stdDeviation="7.5" result="effect1_foregroundBlur_67_1320"/>
            </filter>
            <linearGradient id="paint0_linear_67_1320" x1="23" y1="3.60791" x2="23" y2="24.3925" gradientUnits="userSpaceOnUse">
                <stop stop-color="#9A7DE8"/>
                <stop offset="1" stop-color="#7852E0"/>
            </linearGradient>
        </defs>
    </svg>

    <svg fill="inherit" xmlns="http://www.w3.org/2000/svg" viewBox="0 0 24 24" id="ltc">
        <g opacity="0.3" filter="url(#filter0_f_67_1318)">
            <path d="M20 11.7321C21.8564 10.6603 24.1436 10.6603 26 11.7321L26.9282 12.268C28.7846 13.3398 29.9282 15.3205 29.9282 17.4641V18.5359C29.9282 20.6795 28.7846 22.6603 26.9282 23.7321L26 24.268C24.1436 25.3398 21.8564 25.3398 20 24.268L19.0718 23.7321C17.2154 22.6603 16.0718 20.6795 16.0718 18.5359V17.4641C16.0718 15.3205 17.2154 13.3398 19.0718 12.268L20 11.7321Z" fill="#157070"/>
        </g>
        <g opacity="0.4" filter="url(#filter1_f_67_1318)">
            <path d="M20 16.7321C21.8564 15.6603 24.1436 15.6603 26 16.7321L27.7943 17.768C29.6507 18.8398 30.7943 20.8205 30.7943 22.9641V25.0359C30.7943 27.1795 29.6507 29.1603 27.7943 30.2321L26 31.268C24.1436 32.3398 21.8564 32.3398 20 31.268L18.2058 30.2321C16.3494 29.1603 15.2058 27.1795 15.2058 25.0359V22.9641C15.2058 20.8205 16.3494 18.8398 18.2058 17.768L20 16.7321Z" fill="#157070"/>
        </g>
        <path d="M17.8038 5.00021C21.0192 3.14381 24.9807 3.14381 28.1961 5.00022V5.00022C31.4115 6.85662 33.3923 10.2874 33.3923 14.0002V14.0002C33.3923 17.713 31.4115 21.1438 28.1961 23.0002V23.0002C24.9807 24.8566 21.0192 24.8566 17.8038 23.0002V23.0002C14.5884 21.1438 12.6077 17.713 12.6077 14.0002V14.0002C12.6077 10.2874 14.5884 6.85662 17.8038 5.00021V5.00021Z" fill="url(#paint0_linear_67_1318)"/>
        <path d="M22.2054 17.4026L23.0415 14.5833L24.3443 14.2138L24.6165 13.2805L23.3332 13.6694L24.6942 9.0418V8.96791C24.6932 8.93828 24.6864 8.90915 24.6741 8.88217C24.6619 8.85518 24.6444 8.83089 24.6227 8.81066C24.6011 8.79044 24.5756 8.77468 24.5478 8.7643C24.5201 8.75391 24.4905 8.7491 24.4609 8.75014H22.7304C22.6649 8.74812 22.6006 8.76808 22.5478 8.80684C22.4949 8.8456 22.4565 8.90093 22.4388 8.96402L20.8249 14.4472L19.5417 14.836L19.25 15.7304L20.5333 15.3416L19.3861 19.2498H26.2303C26.296 19.2525 26.3606 19.2328 26.4136 19.1939C26.4666 19.155 26.5048 19.0993 26.522 19.0359L26.9108 17.6943V17.6204C26.9098 17.5907 26.903 17.5616 26.8907 17.5346C26.8784 17.5076 26.861 17.4833 26.8393 17.4631C26.8176 17.4429 26.7922 17.4271 26.7644 17.4168C26.7367 17.4064 26.7071 17.4016 26.6775 17.4026H22.2054Z" fill="white"/>
        <defs>
            <filter id="filter0_f_67_1318" x="10.0718" y="4.92822" width="25.8564" height="26.1436" filterUnits="userSpaceOnUse" color-interpolation-filters="sRGB">
                <feFlood flood-opacity="0" result="BackgroundImageFix"/>
                <feBlend mode="normal" in="SourceGraphic" in2="BackgroundImageFix" result="shape"/>
                <feGaussianBlur stdDeviation="3" result="effect1_foregroundBlur_67_1318"/>
            </filter>
            <filter id="filter1_f_67_1318" x="0.205811" y="0.928223" width="45.5885" height="46.1436" filterUnits="userSpaceOnUse" color-interpolation-filters="sRGB">
                <feFlood flood-opacity="0" result="BackgroundImageFix"/>
                <feBlend mode="normal" in="SourceGraphic" in2="BackgroundImageFix" result="shape"/>
                <feGaussianBlur stdDeviation="7.5" result="effect1_foregroundBlur_67_1318"/>
            </filter>
            <linearGradient id="paint0_linear_67_1318" x1="23" y1="3.60791" x2="23" y2="24.3925" gradientUnits="userSpaceOnUse">
                <stop stop-color="#1EA3A3"/>
                <stop offset="1" stop-color="#1A8D8D"/>
            </linearGradient>
        </defs>
    </svg>

    <svg fill="inherit" xmlns="http://www.w3.org/2000/svg" viewBox="0 0 24 24" id="usdc">
        <g opacity="0.3" filter="url(#filter0_f_67_1314)">
            <path d="M20 11.7321C21.8564 10.6603 24.1436 10.6603 26 11.7321L26.9282 12.268C28.7846 13.3398 29.9282 15.3205 29.9282 17.4641V18.5359C29.9282 20.6795 28.7846 22.6603 26.9282 23.7321L26 24.268C24.1436 25.3398 21.8564 25.3398 20 24.268L19.0718 23.7321C17.2154 22.6603 16.0718 20.6795 16.0718 18.5359V17.4641C16.0718 15.3205 17.2154 13.3398 19.0718 12.268L20 11.7321Z" fill="#0C378D"/>
        </g>
        <g opacity="0.4" filter="url(#filter1_f_67_1314)">
            <path d="M20 16.7321C21.8564 15.6603 24.1436 15.6603 26 16.7321L27.7943 17.768C29.6507 18.8398 30.7943 20.8205 30.7943 22.9641V25.0359C30.7943 27.1795 29.6507 29.1603 27.7943 30.2321L26 31.268C24.1436 32.3398 21.8564 32.3398 20 31.268L18.2058 30.2321C16.3494 29.1603 15.2058 27.1795 15.2058 25.0359V22.9641C15.2058 20.8205 16.3494 18.8398 18.2058 17.768L20 16.7321Z" fill="#0C378D"/>
        </g>
        <path d="M17.8038 5.00021C21.0192 3.14381 24.9807 3.14381 28.1961 5.00022V5.00022C31.4115 6.85662 33.3923 10.2874 33.3923 14.0002V14.0002C33.3923 17.713 31.4115 21.1438 28.1961 23.0002V23.0002C24.9807 24.8566 21.0192 24.8566 17.8038 23.0002V23.0002C14.5884 21.1438 12.6077 17.713 12.6077 14.0002V14.0002C12.6077 10.2874 14.5884 6.85662 17.8038 5.00021V5.00021Z" fill="url(#paint0_linear_67_1314)"/>
        <g clip-path="url(#clip0_67_1314)">
            <path d="M18.6369 12.3784C17.733 14.7782 18.9797 17.4896 21.4106 18.3622C21.5041 18.4245 21.5976 18.5492 21.5976 18.6427V19.079C21.5976 19.1413 21.5976 19.1725 21.5664 19.2036C21.5352 19.3283 21.4106 19.3906 21.2859 19.3283C19.5406 18.7673 18.2005 17.4272 17.6395 15.682C16.7046 12.7213 18.3252 9.5735 21.2859 8.63854C21.3171 8.60742 21.3794 8.60742 21.4106 8.60742C21.5352 8.63854 21.5976 8.73203 21.5976 8.85672V9.29301C21.5976 9.44889 21.5352 9.54239 21.4106 9.60469C20.1328 10.0722 19.1043 11.0694 18.6369 12.3784Z" fill="white"/>
            <path d="M24.4336 8.76322C24.4648 8.63854 24.5894 8.57623 24.7141 8.63854C26.4282 9.19952 27.7995 10.5397 28.3605 12.3161C29.2954 15.2768 27.6748 18.4245 24.7141 19.3595C24.6829 19.3906 24.6206 19.3906 24.5894 19.3906C24.4648 19.3595 24.4024 19.266 24.4024 19.1413V18.705C24.4024 18.5492 24.4648 18.4557 24.5894 18.3934C25.8672 17.9259 26.8957 16.9286 27.3631 15.6197C28.267 13.2199 27.0203 10.5085 24.5894 9.63588C24.4959 9.5735 24.4024 9.44889 24.4024 9.3242V8.88791C24.4024 8.82553 24.4024 8.79441 24.4336 8.76322Z" fill="white"/>
            <path d="M23.0927 13.469C24.4017 13.6248 25.0561 13.9988 25.0561 15.0896C25.0561 15.9311 24.4328 16.5855 23.4979 16.7414V17.4894C23.4667 17.6452 23.3732 17.7387 23.2485 17.7387H22.781C22.6252 17.7075 22.5318 17.614 22.5318 17.4894V16.7414C21.5033 16.5855 21.0046 16.0246 20.88 15.2455V15.2143C20.88 15.0896 20.9735 14.9961 21.0981 14.9961H21.628C21.7215 14.9961 21.815 15.0585 21.8461 15.1831C21.9396 15.6506 22.2201 15.9934 23.0304 15.9934C23.6225 15.9934 24.0589 15.6506 24.0589 15.152C24.0589 14.6533 23.7784 14.4663 22.9057 14.3105C21.5968 14.1546 20.9735 13.7495 20.9735 12.7211C20.9735 11.9419 21.5656 11.3186 22.5006 11.1939V10.4771C22.5318 10.3213 22.6252 10.2278 22.7499 10.2278H23.2174C23.3732 10.2589 23.4667 10.3524 23.4667 10.4771V11.2251C24.1835 11.2874 24.7444 11.8172 24.8691 12.5029V12.5341C24.8691 12.6587 24.7756 12.7522 24.651 12.7522H24.1524C24.0589 12.7522 23.9654 12.6899 23.9342 12.5964C23.7784 12.1289 23.4667 11.9419 22.9057 11.9419C22.2825 11.9419 21.9708 12.2223 21.9708 12.6587C21.9708 13.095 22.1578 13.3443 23.0927 13.469Z" fill="white"/>
        </g>
        <defs>
            <filter id="filter0_f_67_1314" x="10.0718" y="4.92822" width="25.8564" height="26.1436" filterUnits="userSpaceOnUse" color-interpolation-filters="sRGB">
                <feFlood flood-opacity="0" result="BackgroundImageFix"/>
                <feBlend mode="normal" in="SourceGraphic" in2="BackgroundImageFix" result="shape"/>
                <feGaussianBlur stdDeviation="3" result="effect1_foregroundBlur_67_1314"/>
            </filter>
            <filter id="filter1_f_67_1314" x="0.205811" y="0.928223" width="45.5885" height="46.1436" filterUnits="userSpaceOnUse" color-interpolation-filters="sRGB">
                <feFlood flood-opacity="0" result="BackgroundImageFix"/>
                <feBlend mode="normal" in="SourceGraphic" in2="BackgroundImageFix" result="shape"/>
                <feGaussianBlur stdDeviation="7.5" result="effect1_foregroundBlur_67_1314"/>
            </filter>
            <linearGradient id="paint0_linear_67_1314" x1="23" y1="3.60791" x2="23" y2="24.3925" gradientUnits="userSpaceOnUse">
                <stop stop-color="#4D83EF"/>
                <stop offset="1" stop-color="#145CEB"/>
            </linearGradient>
            <clipPath id="clip0_67_1314">
                <rect width="12" height="12" fill="white" transform="translate(17 8)"/>
            </clipPath>
        </defs>
    </svg>

    <svg fill="inherit" xmlns="http://www.w3.org/2000/svg" viewBox="0 0 24 24" id="doge">
        <g opacity="0.3" filter="url(#filter0_f_67_1315)">
            <path d="M20 11.7321C21.8564 10.6603 24.1436 10.6603 26 11.7321L26.9282 12.268C28.7846 13.3398 29.9282 15.3205 29.9282 17.4641V18.5359C29.9282 20.6795 28.7846 22.6603 26.9282 23.7321L26 24.268C24.1436 25.3398 21.8564 25.3398 20 24.268L19.0718 23.7321C17.2154 22.6603 16.0718 20.6795 16.0718 18.5359V17.4641C16.0718 15.3205 17.2154 13.3398 19.0718 12.268L20 11.7321Z" fill="#6B3D0F"/>
        </g>
        <g opacity="0.4" filter="url(#filter1_f_67_1315)">
            <path d="M20 16.7321C21.8564 15.6603 24.1436 15.6603 26 16.7321L27.7943 17.768C29.6507 18.8398 30.7943 20.8205 30.7943 22.9641V25.0359C30.7943 27.1795 29.6507 29.1603 27.7943 30.2321L26 31.268C24.1436 32.3398 21.8564 32.3398 20 31.268L18.2058 30.2321C16.3494 29.1603 15.2058 27.1795 15.2058 25.0359V22.9641C15.2058 20.8205 16.3494 18.8398 18.2058 17.768L20 16.7321Z" fill="#6B3D0F"/>
        </g>
        <path d="M17.8038 5.00021C21.0192 3.14381 24.9807 3.14381 28.1961 5.00022V5.00022C31.4115 6.85662 33.3923 10.2874 33.3923 14.0002V14.0002C33.3923 17.713 31.4115 21.1438 28.1961 23.0002V23.0002C24.9807 24.8566 21.0192 24.8566 17.8038 23.0002V23.0002C14.5884 21.1438 12.6077 17.713 12.6077 14.0002V14.0002C12.6077 10.2874 14.5884 6.85662 17.8038 5.00021V5.00021Z" fill="url(#paint0_linear_67_1315)"/>
        <path fill-rule="evenodd" clip-rule="evenodd" d="M19.3448 19.2431H22.805C22.805 19.2431 27.6705 19.6574 27.6705 14.0844C27.6705 8.72756 23.2275 8.74655 22.3688 8.75023C22.3487 8.75031 22.3305 8.75039 22.3145 8.75039H19.3447V13.4244H18.125V14.5693H19.3448V19.2431ZM21.2937 10.6899H22.6589C23.1695 10.6899 25.7384 10.8987 25.7425 14.1222C25.7466 17.3074 23.1565 17.3041 22.7399 17.3035C22.7349 17.3035 22.7302 17.3035 22.7258 17.3035H21.2937V14.5692H23.4415V13.4243H21.2937V10.6899Z" fill="white"/>
        <defs>
            <filter id="filter0_f_67_1315" x="10.0718" y="4.92822" width="25.8564" height="26.1436" filterUnits="userSpaceOnUse" color-interpolation-filters="sRGB">
                <feFlood flood-opacity="0" result="BackgroundImageFix"/>
                <feBlend mode="normal" in="SourceGraphic" in2="BackgroundImageFix" result="shape"/>
                <feGaussianBlur stdDeviation="3" result="effect1_foregroundBlur_67_1315"/>
            </filter>
            <filter id="filter1_f_67_1315" x="0.205811" y="0.928223" width="45.5885" height="46.1436" filterUnits="userSpaceOnUse" color-interpolation-filters="sRGB">
                <feFlood flood-opacity="0" result="BackgroundImageFix"/>
                <feBlend mode="normal" in="SourceGraphic" in2="BackgroundImageFix" result="shape"/>
                <feGaussianBlur stdDeviation="7.5" result="effect1_foregroundBlur_67_1315"/>
            </filter>
            <linearGradient id="paint0_linear_67_1315" x1="23" y1="3.60791" x2="23" y2="24.3925" gradientUnits="userSpaceOnUse">
                <stop stop-color="#C28457"/>
                <stop offset="1" stop-color="#965E36"/>
            </linearGradient>
        </defs>
    </svg>

    <svg fill="inherit" xmlns="http://www.w3.org/2000/svg" viewBox="0 0 24 24" id="dai">
        <g opacity="0.3" filter="url(#filter0_f_67_1316)">
            <path d="M20 11.7321C21.8564 10.6603 24.1436 10.6603 26 11.7321L26.9282 12.268C28.7846 13.3398 29.9282 15.3205 29.9282 17.4641V18.5359C29.9282 20.6795 28.7846 22.6603 26.9282 23.7321L26 24.268C24.1436 25.3398 21.8564 25.3398 20 24.268L19.0718 23.7321C17.2154 22.6603 16.0718 20.6795 16.0718 18.5359V17.4641C16.0718 15.3205 17.2154 13.3398 19.0718 12.268L20 11.7321Z" fill="#6B3D0F"/>
        </g>
        <g opacity="0.4" filter="url(#filter1_f_67_1316)">
            <path d="M20 16.7321C21.8564 15.6603 24.1436 15.6603 26 16.7321L27.7943 17.768C29.6507 18.8398 30.7943 20.8205 30.7943 22.9641V25.0359C30.7943 27.1795 29.6507 29.1603 27.7943 30.2321L26 31.268C24.1436 32.3398 21.8564 32.3398 20 31.268L18.2058 30.2321C16.3494 29.1603 15.2058 27.1795 15.2058 25.0359V22.9641C15.2058 20.8205 16.3494 18.8398 18.2058 17.768L20 16.7321Z" fill="#6B3D0F"/>
        </g>
        <path d="M17.8038 5.00021C21.0192 3.14381 24.9807 3.14381 28.1961 5.00022V5.00022C31.4115 6.85662 33.3923 10.2874 33.3923 14.0002V14.0002C33.3923 17.713 31.4115 21.1438 28.1961 23.0002V23.0002C24.9807 24.8566 21.0192 24.8566 17.8038 23.0002V23.0002C14.5884 21.1438 12.6077 17.713 12.6077 14.0002V14.0002C12.6077 10.2874 14.5884 6.85662 17.8038 5.00021V5.00021Z" fill="url(#paint0_linear_67_1316)"/>
        <path d="M23.1343 14.518H26.4039C26.4736 14.518 26.5065 14.518 26.5116 14.4267C26.5383 14.094 26.5383 13.7595 26.5116 13.4265C26.5116 13.3618 26.4794 13.3351 26.4093 13.3351H19.9023C19.8218 13.3351 19.8001 13.3618 19.8001 13.4373V14.3945C19.8001 14.518 19.8001 14.518 19.929 14.518H23.1343V14.518ZM26.1464 12.2165C26.1557 12.1921 26.1557 12.1654 26.1464 12.1414C26.0918 12.0225 26.0272 11.909 25.9521 11.8025C25.839 11.6206 25.7058 11.4529 25.554 11.3023C25.4824 11.2113 25.3995 11.1296 25.3066 11.0603C24.8412 10.6642 24.2878 10.3838 23.6931 10.2429C23.393 10.1755 23.0863 10.1434 22.7789 10.1461H19.8911C19.8105 10.1461 19.7997 10.1782 19.7997 10.2483V12.1572C19.7997 12.2378 19.7997 12.2595 19.9019 12.2595H26.1077C26.1077 12.2595 26.1615 12.2486 26.1724 12.2165H26.146H26.1464ZM26.1464 15.6367C26.0551 15.6266 25.9629 15.6266 25.8715 15.6367H19.9077C19.8272 15.6367 19.8001 15.6367 19.8001 15.7443V17.6107C19.8001 17.6966 19.8001 17.7183 19.9077 17.7183H22.6612C22.7928 17.7284 22.9245 17.7191 23.0534 17.6916C23.453 17.6629 23.846 17.5762 24.2208 17.4333C24.3571 17.3861 24.4888 17.3245 24.6131 17.2506H24.6506C25.2961 16.9149 25.8204 16.3875 26.1511 15.7401C26.1511 15.7401 26.1886 15.6588 26.1464 15.6375V15.6367ZM18.7194 18.686V18.6538V17.4008V16.976V15.7122C18.7194 15.6421 18.7194 15.6317 18.6334 15.6317H17.4664C17.4017 15.6317 17.375 15.6317 17.375 15.5457V14.5238H18.6226C18.6923 14.5238 18.7194 14.5238 18.7194 14.4325V13.4215C18.7194 13.3568 18.7194 13.3409 18.6334 13.3409H17.4664C17.4017 13.3409 17.375 13.3409 17.375 13.255V12.3086C17.375 12.2494 17.375 12.2335 17.461 12.2335H18.6172C18.6977 12.2335 18.7194 12.2335 18.7194 12.1313V9.23264C18.7194 9.14668 18.7194 9.125 18.827 9.125H22.8602C23.1529 9.13662 23.4437 9.16875 23.7314 9.2218C24.3242 9.33138 24.8938 9.54319 25.4146 9.8456C25.76 10.0489 26.0779 10.2944 26.3609 10.577C26.5739 10.7981 26.766 11.0374 26.9363 11.2922C27.1056 11.5505 27.2461 11.8266 27.3565 12.115C27.37 12.1901 27.442 12.2409 27.5172 12.2281H28.4798C28.6033 12.2281 28.6033 12.2281 28.6087 12.3466V13.2286C28.6087 13.3146 28.5766 13.3363 28.4902 13.3363H27.7479C27.6728 13.3363 27.6511 13.3363 27.6565 13.4331C27.686 13.7607 27.686 14.0894 27.6565 14.417C27.6565 14.5084 27.6565 14.5192 27.7592 14.5192H28.6083C28.6459 14.5676 28.6083 14.616 28.6083 14.6648C28.6137 14.7271 28.6137 14.7902 28.6083 14.8526V15.5035C28.6083 15.5949 28.5816 15.622 28.5007 15.622H27.4842C27.4134 15.6084 27.3445 15.6537 27.3282 15.7242C27.0862 16.3534 26.699 16.9176 26.1987 17.3698C26.0159 17.5344 25.8239 17.6893 25.6233 17.8322C25.408 17.9561 25.1985 18.085 24.9778 18.1872C24.5717 18.37 24.1457 18.5047 23.7086 18.5903C23.2935 18.6647 22.8726 18.6983 22.4501 18.6925H18.7178V18.6871L18.7194 18.686Z" fill="white"/>
        <defs>
            <filter id="filter0_f_67_1316" x="10.0718" y="4.92822" width="25.8564" height="26.1436" filterUnits="userSpaceOnUse" color-interpolation-filters="sRGB">
                <feFlood flood-opacity="0" result="BackgroundImageFix"/>
                <feBlend mode="normal" in="SourceGraphic" in2="BackgroundImageFix" result="shape"/>
                <feGaussianBlur stdDeviation="3" result="effect1_foregroundBlur_67_1316"/>
            </filter>
            <filter id="filter1_f_67_1316" x="0.205811" y="0.928223" width="45.5885" height="46.1436" filterUnits="userSpaceOnUse" color-interpolation-filters="sRGB">
                <feFlood flood-opacity="0" result="BackgroundImageFix"/>
                <feBlend mode="normal" in="SourceGraphic" in2="BackgroundImageFix" result="shape"/>
                <feGaussianBlur stdDeviation="7.5" result="effect1_foregroundBlur_67_1316"/>
            </filter>
            <linearGradient id="paint0_linear_67_1316" x1="23" y1="3.60791" x2="23" y2="24.3925" gradientUnits="userSpaceOnUse">
                <stop stop-color="#F4BA45"/>
                <stop offset="1" stop-color="#F19C3B"/>
            </linearGradient>
        </defs>
    </svg>

    <svg fill="inherit" xmlns="http://www.w3.org/2000/svg" viewBox="0 0 24 24" id="bch">
        <g opacity="0.3" filter="url(#filter0_f_67_1317)">
            <path d="M20 11.7321C21.8564 10.6603 24.1436 10.6603 26 11.7321L26.9282 12.268C28.7846 13.3398 29.9282 15.3205 29.9282 17.4641V18.5359C29.9282 20.6795 28.7846 22.6603 26.9282 23.7321L26 24.268C24.1436 25.3398 21.8564 25.3398 20 24.268L19.0718 23.7321C17.2154 22.6603 16.0718 20.6795 16.0718 18.5359V17.4641C16.0718 15.3205 17.2154 13.3398 19.0718 12.268L20 11.7321Z" fill="#274319"/>
        </g>
        <g opacity="0.4" filter="url(#filter1_f_67_1317)">
            <path d="M20 16.7321C21.8564 15.6603 24.1436 15.6603 26 16.7321L27.7943 17.768C29.6507 18.8398 30.7943 20.8205 30.7943 22.9641V25.0359C30.7943 27.1795 29.6507 29.1603 27.7943 30.2321L26 31.268C24.1436 32.3398 21.8564 32.3398 20 31.268L18.2058 30.2321C16.3494 29.1603 15.2058 27.1795 15.2058 25.0359V22.9641C15.2058 20.8205 16.3494 18.8398 18.2058 17.768L20 16.7321Z" fill="#274319"/>
        </g>
        <path d="M17.8038 5.00021C21.0192 3.14381 24.9807 3.14381 28.1961 5.00022V5.00022C31.4115 6.85662 33.3923 10.2874 33.3923 14.0002V14.0002C33.3923 17.713 31.4115 21.1438 28.1961 23.0002V23.0002C24.9807 24.8566 21.0192 24.8566 17.8038 23.0002V23.0002C14.5884 21.1438 12.6077 17.713 12.6077 14.0002V14.0002C12.6077 10.2874 14.5884 6.85662 17.8038 5.00021V5.00021Z" fill="url(#paint0_linear_67_1317)"/>
        <path d="M25.7705 11.1007C25.3526 10.056 24.3601 10.0037 23.1586 10.2127L22.7407 8.75L21.8526 9.01119L22.2705 10.4216C22.0616 10.4739 21.8004 10.5784 21.5392 10.6306L21.1213 9.16791L20.2332 9.4291L20.6511 10.8918C20.4422 10.944 20.2854 10.9963 20.0765 11.0485L18.875 11.4664L19.1362 12.4067C19.1362 12.4067 19.8153 12.1978 19.7631 12.1978C20.1287 12.0933 20.2854 12.25 20.3899 12.459L20.8601 14.1306C20.8601 14.1306 20.9123 14.1306 20.9646 14.1306L20.8601 14.1828L21.5392 16.5336C21.5392 16.6381 21.5392 16.847 21.278 16.9515L20.6511 17.1604L20.7556 18.2575L21.9049 17.944C22.1138 17.8918 22.3228 17.8396 22.5317 17.7873L22.9496 19.25L23.8377 18.9888L23.4198 17.5261C23.681 17.4739 23.8899 17.4216 24.1511 17.3172L24.569 18.7799L25.4571 18.5187L25.0392 17.056C26.5019 16.5336 27.4422 15.8545 27.181 14.3918C26.972 13.2425 26.2929 12.8769 25.3526 12.9291C25.875 12.4067 26.084 11.8843 25.7705 11.1007ZM25.4571 14.653C25.7705 15.75 23.8377 16.1679 23.2108 16.3769L22.6362 14.3918C23.2631 14.2351 25.0914 13.5037 25.4571 14.653ZM24.2034 11.9888C24.5168 12.9813 22.8974 13.347 22.375 13.5037L21.8526 11.7276C22.375 11.5709 23.9422 10.944 24.2034 11.9888Z" fill="white"/>
        <defs>
            <filter id="filter0_f_67_1317" x="10.0718" y="4.92822" width="25.8564" height="26.1436" filterUnits="userSpaceOnUse" color-interpolation-filters="sRGB">
                <feFlood flood-opacity="0" result="BackgroundImageFix"/>
                <feBlend mode="normal" in="SourceGraphic" in2="BackgroundImageFix" result="shape"/>
                <feGaussianBlur stdDeviation="3" result="effect1_foregroundBlur_67_1317"/>
            </filter>
            <filter id="filter1_f_67_1317" x="0.205811" y="0.928223" width="45.5885" height="46.1436" filterUnits="userSpaceOnUse" color-interpolation-filters="sRGB">
                <feFlood flood-opacity="0" result="BackgroundImageFix"/>
                <feBlend mode="normal" in="SourceGraphic" in2="BackgroundImageFix" result="shape"/>
                <feGaussianBlur stdDeviation="7.5" result="effect1_foregroundBlur_67_1317"/>
            </filter>
            <linearGradient id="paint0_linear_67_1317" x1="23" y1="3.60791" x2="23" y2="24.3925" gradientUnits="userSpaceOnUse">
                <stop stop-color="#63A840"/>
                <stop offset="1" stop-color="#528D34"/>
            </linearGradient>
        </defs>
    </svg>

    <svg fill="inherit" xmlns="http://www.w3.org/2000/svg" viewBox="0 0 24 24" id="usdt">
        <g opacity="0.3" filter="url(#filter0_f_67_1321)">
            <path d="M20 11.7321C21.8564 10.6603 24.1436 10.6603 26 11.7321L26.9282 12.268C28.7846 13.3398 29.9282 15.3205 29.9282 17.4641V18.5359C29.9282 20.6795 28.7846 22.6603 26.9282 23.7321L26 24.268C24.1436 25.3398 21.8564 25.3398 20 24.268L19.0718 23.7321C17.2154 22.6603 16.0718 20.6795 16.0718 18.5359V17.4641C16.0718 15.3205 17.2154 13.3398 19.0718 12.268L20 11.7321Z" fill="#194327"/>
        </g>
        <g opacity="0.4" filter="url(#filter1_f_67_1321)">
            <path d="M20 16.7321C21.8564 15.6603 24.1436 15.6603 26 16.7321L27.7943 17.768C29.6507 18.8398 30.7943 20.8205 30.7943 22.9641V25.0359C30.7943 27.1795 29.6507 29.1603 27.7943 30.2321L26 31.268C24.1436 32.3398 21.8564 32.3398 20 31.268L18.2058 30.2321C16.3494 29.1603 15.2058 27.1795 15.2058 25.0359V22.9641C15.2058 20.8205 16.3494 18.8398 18.2058 17.768L20 16.7321Z" fill="#194327"/>
        </g>
        <path d="M17.8038 5.00021C21.0192 3.14381 24.9807 3.14381 28.1961 5.00022V5.00022C31.4115 6.85662 33.3923 10.2874 33.3923 14.0002V14.0002C33.3923 17.713 31.4115 21.1438 28.1961 23.0002V23.0002C24.9807 24.8566 21.0192 24.8566 17.8038 23.0002V23.0002C14.5884 21.1438 12.6077 17.713 12.6077 14.0002V14.0002C12.6077 10.2874 14.5884 6.85662 17.8038 5.00021V5.00021Z" fill="url(#paint0_linear_67_1321)"/>
        <path fill-rule="evenodd" clip-rule="evenodd" d="M24.0682 14.324C24.0085 14.3285 23.7003 14.3469 23.0127 14.3469C22.4658 14.3469 22.0775 14.3305 21.9412 14.324C19.8277 14.2311 18.2502 13.8632 18.2502 13.4227C18.2502 12.9821 19.8277 12.6147 21.9412 12.5203V13.9576C22.0795 13.9676 22.4752 13.9909 23.0221 13.9909C23.6784 13.9909 24.007 13.9636 24.0662 13.9581V12.5213C26.1753 12.6152 27.7493 12.9831 27.7493 13.4227C27.7493 13.8622 26.1758 14.2301 24.0662 14.3235L24.0682 14.324ZM24.0682 12.3726V11.0864H27.0115V9.125H18.9979V11.0864H21.9408V12.3721C19.5488 12.482 17.75 12.9558 17.75 13.5236C17.75 14.0914 19.5488 14.5647 21.9408 14.6751V18.7967H24.0677V14.6736C26.4542 14.5637 28.25 14.0904 28.25 13.5231C28.25 12.9558 26.4557 12.4825 24.0677 12.3721L24.0682 12.3726Z" fill="white"/>
        <defs>
            <filter id="filter0_f_67_1321" x="10.0718" y="4.92822" width="25.8564" height="26.1436" filterUnits="userSpaceOnUse" color-interpolation-filters="sRGB">
                <feFlood flood-opacity="0" result="BackgroundImageFix"/>
                <feBlend mode="normal" in="SourceGraphic" in2="BackgroundImageFix" result="shape"/>
                <feGaussianBlur stdDeviation="3" result="effect1_foregroundBlur_67_1321"/>
            </filter>
            <filter id="filter1_f_67_1321" x="0.205811" y="0.928223" width="45.5885" height="46.1436" filterUnits="userSpaceOnUse" color-interpolation-filters="sRGB">
                <feFlood flood-opacity="0" result="BackgroundImageFix"/>
                <feBlend mode="normal" in="SourceGraphic" in2="BackgroundImageFix" result="shape"/>
                <feGaussianBlur stdDeviation="7.5" result="effect1_foregroundBlur_67_1321"/>
            </filter>
            <linearGradient id="paint0_linear_67_1321" x1="23" y1="3.60791" x2="23" y2="24.3925" gradientUnits="userSpaceOnUse">
                <stop stop-color="#3FA862"/>
                <stop offset="1" stop-color="#348D52"/>
            </linearGradient>
        </defs>
    </svg>

    <svg fill="inherit" xmlns="http://www.w3.org/2000/svg" viewBox="0 0 32 32" id="ellipse">
        <circle cx="16" cy="16" r="15" fill="#24E476" stroke="#12133F" stroke-width="2"/>
    </svg>
</svg>