<svg width="1180" height="168" viewBox="0 0 1180 168" fill="none" xmlns="http://www.w3.org/2000/svg">
    <path opacity="0.02" d="M-23 161.893C49.7005 125.542 62.235 125.542 86.0507 143.717C109.866 161.893 182.567 185.082 190.088 232.088C197.608 279.094 180.06 344.275 231.452 354.93C282.843 365.584 489.664 425.125 539.175 398.802C588.687 372.478 572.392 327.353 623.783 333.62C675.175 339.888 837.498 378.119 853.793 410.71C870.088 443.3 853.793 461.476 863.82 483.412C871.842 500.961 1040.98 571.783 1124.54 605M29.0184 -530.031C101.719 -566.382 165.289 -612.43 220.171 -603.987C285.35 -593.959 544.101 -413.96 566.751 -372.091C587.433 -333.861 549.708 -301.584 578.032 -257.398C593.7 -232.956 752.889 -155.238 791.12 -165.266C829.35 -175.294 843.138 -241.103 894.53 -234.835C945.922 -228.568 1022.38 -162.76 1038.68 -130.169C1054.97 -97.5788 1028.65 -68.7478 1038.68 -46.8118C1046.7 -29.263 1337 158.133 1337 158.133M-21.7319 144.686C50.9686 108.335 64.7479 107.212 89.3213 125.15C114.146 143.127 191.384 170.141 199.274 217.022C207.116 263.813 189.075 328.192 239.904 339.665C290.425 350.655 496.083 410.639 545.32 384.714C594.556 358.788 578.995 313.158 630.386 319.425C681.778 325.693 842.007 364.597 858.301 397.187C874.596 429.778 858.057 448.213 868.085 470.149C876.107 487.698 1048.19 561.363 1129.72 593.771M-20.4637 127.503C52.2368 91.1518 67.2609 88.9056 92.5919 106.606C118.425 124.385 200.201 155.223 208.46 201.978C216.623 248.556 198.09 312.132 248.357 324.422C298.006 335.75 502.503 396.177 551.464 370.649C600.425 345.12 585.598 298.986 636.989 305.253C688.381 311.521 846.515 351.097 862.81 383.688C879.105 416.279 862.321 434.974 872.349 456.91C880.371 474.459 1055.41 550.967 1134.9 582.564M-19.1931 110.342C53.5073 73.9912 69.7762 70.6219 95.865 88.0853C122.707 105.665 209.021 140.328 217.649 186.958C226.133 233.321 207.108 296.095 256.812 309.203C305.59 320.867 508.925 381.737 557.611 356.606C606.297 331.476 592.203 284.837 643.595 291.104C694.987 297.372 851.027 337.621 867.321 370.211C883.616 402.802 866.588 421.757 876.615 443.693C884.637 461.242 1062.64 540.594 1140.09 571.381M-17.925 93.2043C54.7755 56.8532 72.2891 52.3608 99.1356 69.5868C126.987 86.9674 217.838 125.455 226.835 171.96C235.64 218.11 216.123 280.081 265.264 294.007C313.171 306.006 515.344 367.32 563.755 342.587C612.166 317.854 598.806 270.71 650.198 276.978C701.59 283.245 855.535 324.167 871.83 356.757C888.125 389.348 870.852 408.563 880.88 430.499C888.902 448.048 1069.86 530.243 1145.27 560.22M-16.6568 76.0887C56.0436 39.7377 74.8021 34.1221 102.406 51.1108C131.266 68.2926 226.656 110.605 236.022 156.985C245.147 202.92 225.138 264.089 273.717 278.832C320.752 291.168 521.764 352.926 569.9 328.59C618.035 304.254 605.409 256.606 656.801 262.873C708.192 269.141 860.044 310.735 876.339 343.326C892.634 375.916 875.116 395.391 885.144 417.327C893.166 434.876 1077.08 519.915 1150.45 549.081M-15.3887 58.9952C57.3118 22.6441 77.315 15.9054 105.677 32.6567C135.546 49.6399 235.473 95.7771 245.208 142.031C254.655 187.753 234.154 248.119 282.17 263.68C328.333 276.353 528.183 338.553 576.044 314.615C623.905 290.676 612.012 242.524 663.404 248.791C714.795 255.059 864.553 297.326 880.848 329.916C897.143 362.507 879.38 382.242 889.408 404.178C897.43 421.727 1084.29 509.608 1155.63 537.964M-14.1181 41.9234C58.5824 5.57229 79.8303 -2.28945 108.95 14.2245C139.828 31.0089 244.293 80.9707 254.397 127.099C264.164 172.607 243.171 232.17 290.625 248.55C335.917 261.558 534.605 324.202 582.191 300.661C629.776 277.12 618.617 228.463 670.009 234.731C721.401 240.998 869.064 283.938 885.359 316.528C901.654 349.119 883.647 369.114 893.675 391.05C901.697 408.599 1091.52 499.324 1160.81 526.87M-12.8499 24.8728C59.8505 -11.4783 82.3433 -20.4632 112.221 -4.18664C144.107 12.399 253.11 66.1855 263.583 112.189C273.672 157.482 252.186 216.243 299.077 233.441C343.498 246.785 541.025 309.873 588.335 286.729C635.646 263.586 625.22 214.424 676.612 220.692C728.004 226.959 873.573 270.571 889.868 303.162C906.163 335.753 887.911 356.007 897.939 377.943C905.961 395.492 1098.74 489.06 1166 515.796M-11.5818 7.84282C61.1187 -28.5083 84.8562 -38.6163 115.491 -22.5771C148.387 -6.19014 261.927 51.4209 272.769 97.2991C283.179 142.379 261.202 200.337 307.53 218.352C351.08 232.033 547.444 295.564 594.48 272.818C641.515 250.072 631.823 200.406 683.215 206.673C734.607 212.941 878.082 257.225 894.377 289.816C910.672 322.407 892.175 342.921 902.203 364.857C910.225 382.406 1105.96 478.817 1171.18 504.743M-10.3137 -9.16707C62.3868 -45.5182 87.3691 -56.7493 118.762 -40.9475C152.666 -24.7592 270.745 36.6764 281.956 82.4293C292.686 127.295 270.217 184.45 315.982 203.283C358.661 217.301 553.864 281.275 600.624 258.926C647.384 236.577 638.426 186.407 689.818 192.675C741.21 198.942 882.59 243.899 898.885 276.49C915.18 309.081 896.44 329.855 906.467 351.791C914.489 369.34 1113.18 468.595 1176.36 493.71M-9.04306 -26.1576C63.6574 -62.5087 89.8845 -74.8628 122.035 -59.2984C156.948 -43.3089 279.564 21.9514 291.144 67.579C302.196 112.23 279.234 168.583 324.437 188.234C366.245 202.588 560.286 267.005 606.771 245.054C653.256 223.103 645.032 172.428 696.424 178.696C747.815 184.963 887.102 230.593 903.397 263.184C919.692 295.774 900.706 316.809 910.734 338.745C918.756 356.293 1120.4 458.391 1181.54 482.697M-7.77491 -43.1293C64.9255 -79.4804 92.3974 -92.9577 125.305 -77.6307C161.228 -61.8399 288.382 7.24498 300.331 52.7473C311.704 97.1846 288.25 152.735 332.89 173.204C373.826 187.894 566.705 252.755 612.915 231.201C659.125 209.647 651.635 158.468 703.027 164.735C754.418 171.003 891.611 217.305 907.905 249.896C924.2 282.487 904.971 303.781 914.998 325.717C923.02 343.266 1127.62 448.207 1186.72 471.702M-6.50677 -60.083C66.1937 -96.4341 94.9103 -111.035 128.576 -95.9449C165.507 -80.3529 297.199 -7.44336 309.517 37.9337C321.211 82.157 297.265 136.905 341.343 158.192C381.407 173.218 573.125 238.522 619.06 217.366C664.994 196.209 658.238 144.526 709.629 150.793C761.021 157.06 896.119 204.036 912.414 236.626C928.709 269.217 909.235 290.771 919.262 312.707C927.285 330.256 1134.84 438.04 1191.9 460.725M-5.23862 -77.0194C67.4618 -113.37 97.4232 -129.094 131.847 -114.242C169.787 -98.8485 306.016 -22.1143 318.703 23.1375C330.718 67.1467 306.28 121.092 349.795 143.197C388.989 158.559 579.545 224.307 625.204 203.548C670.863 182.789 664.841 130.601 716.232 136.868C767.624 143.135 900.628 190.783 916.923 223.374C933.218 255.964 913.499 277.778 923.527 299.714C931.549 317.263 1142.06 427.891 1197.09 449.766M-3.96803 -93.9392C68.7324 -130.29 99.9386 -147.137 135.12 -132.522C174.069 -117.327 314.836 -36.7687 327.892 8.35778C340.228 52.153 315.298 105.296 358.25 128.218C396.572 143.917 585.967 210.108 631.351 189.746C676.735 169.385 671.446 116.692 722.838 122.96C774.23 129.227 905.139 177.547 921.434 210.138C937.729 242.729 917.766 264.803 927.793 286.739C935.815 304.287 1149.28 417.758 1202.27 438.823M-2.69988 -110.843C70.0006 -147.194 102.451 -165.164 138.39 -150.786C178.348 -135.791 323.653 -51.4073 337.078 -6.4061C349.735 37.1751 324.313 89.5155 366.703 113.256C404.154 129.291 592.386 195.925 637.495 175.961C682.604 155.997 678.049 102.8 729.441 109.067C780.833 115.335 909.648 164.328 925.943 196.918C942.238 229.509 922.03 251.843 932.057 273.779C940.08 291.327 1156.5 407.642 1207.45 427.896M-1.43174 -127.732C71.2687 -164.083 104.964 -183.176 141.661 -169.036C182.628 -154.239 332.471 -66.0307 346.265 -21.1547C359.243 22.2125 333.328 73.7502 375.155 98.3082C411.735 114.68 598.806 181.757 643.64 162.19C688.474 142.624 684.652 88.9224 736.044 95.1898C787.436 101.457 914.157 151.123 930.452 183.713C946.747 216.304 926.294 238.898 936.322 260.834C944.344 278.382 1163.72 397.54 1212.63 416.984M-0.163594 -144.606C72.5369 -180.957 107.477 -201.173 144.932 -187.271C186.907 -172.672 341.288 -80.6396 355.451 -35.8889C368.75 7.2642 342.343 57.9994 383.608 83.3752C419.316 100.083 605.225 167.604 649.784 148.435C694.343 129.265 691.255 75.0594 742.647 81.3269C794.038 87.5943 918.666 137.932 934.961 170.523C951.256 203.114 930.558 225.967 940.586 247.903C948.608 265.452 1170.94 387.453 1217.81 406.087M1.107 -161.467C73.8075 -197.818 109.993 -219.157 148.205 -205.492C191.189 -191.092 350.108 -95.2347 364.64 -50.6094C378.26 -7.67026 351.361 42.2624 392.063 68.4561C426.9 85.5 611.647 153.464 655.931 134.692C700.215 115.921 697.861 61.2103 749.252 67.4777C800.644 73.7451 923.177 124.756 939.472 157.347C955.767 189.937 934.825 213.051 944.853 234.987C952.875 252.535 1178.16 377.38 1223 395.204M2.37514 -178.314C75.0756 -214.665 112.506 -237.128 151.475 -223.7C195.469 -209.499 358.925 -109.817 373.826 -65.3168C387.767 -22.5917 360.376 26.5384 400.516 53.5499C434.481 70.9302 618.067 139.338 662.075 120.963C706.084 102.589 704.463 47.3742 755.855 53.6416C807.247 59.909 927.686 111.592 943.981 144.183C960.276 176.774 939.089 200.147 949.117 222.083C957.139 239.632 1185.38 367.319 1228.18 384.333M3.64329 -195.149C76.3438 -231.501 115.019 -255.086 154.746 -241.895C199.748 -227.893 367.742 -124.387 383.013 -80.0117C397.274 -37.5007 369.391 10.8269 408.968 38.6562C442.063 56.3728 624.486 125.224 668.22 107.247C711.953 89.2699 711.066 33.5506 762.458 39.818C813.85 46.0854 932.194 98.4413 948.489 131.032C964.784 163.623 943.353 187.256 953.381 209.192C961.403 226.741 1192.6 357.271 1233.36 373.475M4.91143 -211.973C77.6119 -248.324 117.531 -273.032 158.017 -260.079C204.028 -246.276 376.56 -138.944 392.199 -94.6949C406.782 -52.3979 378.407 -4.87292 417.421 23.7743C449.644 41.8271 630.906 111.121 674.364 93.5418C717.822 75.9625 717.669 19.7387 769.061 26.0061C820.453 32.2735 936.703 85.3021 952.998 117.893C969.293 150.483 947.618 174.376 957.645 196.312C965.667 213.861 1199.82 347.235 1238.54 362.629M6.18203 -228.785C78.8825 -265.136 120.047 -290.968 161.29 -278.252C208.309 -264.647 385.379 -153.491 401.388 -109.367C416.292 -67.284 387.424 -20.5615 425.876 8.90351C457.228 27.2926 637.328 97.0301 680.511 79.8482C723.694 62.6663 724.275 5.93795 775.667 12.2054C827.058 18.4728 941.215 72.174 957.509 104.765C973.804 137.355 951.884 161.508 961.912 183.444C969.934 200.993 1207.04 337.21 1243.73 351.793M7.45017 -245.586C80.1506 -281.938 122.56 -308.892 164.56 -296.414C212.589 -283.008 394.197 -168.027 410.574 -124.028C425.799 -82.1594 396.439 -36.2395 434.328 -5.95666C464.809 12.7687 643.747 82.9495 686.655 66.1651C729.563 49.3806 730.878 -7.85219 782.27 -1.58476C833.661 4.68267 945.723 59.0564 962.018 91.6471C978.313 124.238 956.148 148.651 966.176 170.587C974.198 188.135 1214.26 327.196 1248.91 340.969M8.71832 -262.378C81.4188 -298.729 125.073 -326.807 167.831 -314.566C216.868 -301.358 403.014 -182.553 419.76 -138.68C435.306 -97.0248 405.455 -51.9075 442.781 -20.8068C472.39 -1.74514 650.167 68.8791 692.8 52.492C735.433 36.105 737.481 -21.6323 788.873 -15.3648C840.264 -9.09741 950.232 45.9489 966.527 78.5396C982.822 111.13 960.413 135.803 970.44 157.739C978.462 175.288 1221.48 317.192 1254.09 330.154M9.98646 -279.16C82.6869 -315.511 127.586 -344.712 171.101 -332.708C221.148 -319.7 411.831 -197.07 428.947 -153.322C444.813 -111.881 414.47 -67.5661 451.234 -35.6475C479.971 -16.2495 656.586 54.818 698.944 38.8285C741.302 22.8389 744.084 -35.4029 795.475 -29.1355C846.867 -22.868 954.741 32.8509 971.036 65.4415C987.331 98.0322 964.677 122.965 974.704 144.901C982.727 162.45 1228.7 307.197 1259.27 319.349M11.2571 -295.933C83.9575 -332.284 130.101 -362.608 174.375 -350.841C225.43 -338.032 420.651 -211.578 438.135 -167.954C454.323 -126.728 423.487 -83.2154 459.689 -50.479C487.555 -30.7448 663.008 40.7661 705.091 25.174C747.173 9.58185 750.689 -49.1644 802.081 -42.8969C853.473 -36.6295 959.252 19.7621 975.547 52.3527C991.842 84.9433 968.943 110.136 978.971 132.072C986.993 149.621 1235.92 297.211 1264.45 308.554M12.5252 -312.697C85.2257 -349.048 132.614 -380.495 177.645 -368.966C229.709 -356.355 429.468 -226.077 447.322 -182.579C463.831 -141.566 432.503 -98.8563 468.141 -65.3021C495.136 -45.2315 669.428 26.7227 711.235 11.528C753.043 -3.66666 757.292 -62.9174 808.684 -56.65C860.076 -50.3825 963.761 6.68164 980.056 39.2723C996.351 71.8629 973.208 97.3153 983.235 119.251C991.257 136.8 1243.14 287.234 1269.63 297.766M13.7933 -329.454C86.4938 -365.805 135.127 -398.375 180.916 -387.083C233.989 -374.671 438.286 -240.568 456.508 -197.195C473.338 -156.396 441.518 -114.489 476.594 -80.117C502.718 -59.7102 675.848 12.6874 717.38 -2.10986C758.912 -16.9071 763.895 -76.6623 815.287 -70.3948C866.679 -64.1274 968.27 -6.39064 984.565 26.2C1000.86 58.7906 977.472 84.503 987.5 106.439C995.522 123.988 1250.36 277.265 1274.82 286.987M15.0615 -346.202C87.762 -382.553 137.64 -416.247 184.186 -405.192C238.268 -392.979 447.103 -255.051 465.694 -211.804C482.845 -171.219 450.533 -130.114 485.046 -94.9243C510.299 -74.1812 682.267 -1.34032 723.524 -15.7401C764.781 -30.1399 770.498 -90.3995 821.89 -84.1321C873.282 -77.8647 972.778 -19.4553 989.073 13.1354C1005.37 45.726 981.736 71.6982 991.764 93.6342C999.786 111.183 1257.58 267.303 1280 276.215M16.3321 -362.944C89.0325 -399.295 140.155 -434.111 187.459 -423.294C242.55 -411.28 455.923 -269.527 474.883 -226.405C492.355 -186.034 459.551 -145.732 493.501 -109.724C517.883 -88.6451 688.689 -15.3608 729.671 -29.3632C770.653 -43.3656 777.104 -104.13 828.495 -97.8622C879.887 -91.5948 977.29 -32.5128 993.585 0.0778082C1009.88 32.6684 986.003 58.9005 996.03 80.8365C1004.05 98.3853 1264.8 257.349 1285.18 265.451M17.6002 -379.678C90.3007 -416.029 142.668 -451.969 190.73 -441.389C246.83 -429.573 464.74 -283.996 484.069 -240.999C501.862 -200.843 468.566 -161.343 501.954 -124.518C525.464 -103.102 695.109 -29.3743 735.815 -42.9792C776.522 -56.5842 783.707 -117.853 835.098 -111.585C886.49 -105.318 981.798 -45.5633 998.093 -12.9727C1014.39 19.618 990.267 46.1099 1000.29 68.0459C1008.32 85.5947 1272.02 247.401 1290.36 254.693M18.8684 -396.406C91.5688 -432.757 145.181 -469.82 194.001 -459.478C251.109 -447.86 473.557 -298.459 493.256 -255.587C511.37 -215.645 477.581 -176.948 510.407 -139.304C533.045 -117.552 701.528 -43.3813 741.96 -56.5888C782.391 -69.7963 790.31 -131.569 841.701 -125.302C893.093 -119.034 986.307 -58.6072 1002.6 -26.0166C1018.9 6.57403 994.531 33.3259 1004.56 55.2619C1012.58 72.8107 1279.24 237.461 1295.54 243.942M20.1365 -413.128C92.837 -449.479 147.694 -487.665 197.271 -477.56C255.389 -466.141 482.375 -312.915 502.442 -270.169C520.877 -230.44 486.596 -192.546 518.859 -154.085C540.627 -131.996 707.948 -57.3821 748.104 -70.1921C788.261 -83.0021 796.913 -145.28 848.304 -139.012C899.696 -132.745 990.816 -71.645 1007.11 -39.0544C1023.41 -6.46374 998.795 20.548 1008.82 42.484C1016.85 60.0328 1286.46 227.526 1300.73 233.197M21.4071 -429.844C94.1076 -466.195 150.209 -505.504 200.544 -495.636C259.671 -484.417 491.194 -327.366 511.631 -284.745C530.387 -245.23 495.614 -208.138 527.314 -168.859C548.21 -146.435 714.37 -71.377 754.251 -83.7896C794.132 -96.2021 803.518 -158.984 854.91 -152.717C906.301 -146.449 995.327 -84.6769 1011.62 -52.0862C1027.92 -19.4956 1003.06 7.77603 1013.09 29.712C1021.11 47.2608 1293.68 217.597 1305.91 222.459M22.6753 -446.554C95.3757 -482.905 152.722 -523.337 203.815 -513.707C263.95 -502.686 500.012 -341.81 520.817 -299.315C539.894 -260.014 504.629 -223.725 535.767 -183.628C555.792 -160.867 720.789 -85.3663 760.395 -97.3814C800.002 -109.397 810.121 -172.683 861.513 -166.416C912.904 -160.148 999.836 -97.7032 1016.13 -65.1125C1032.43 -32.5219 1007.33 -4.99034 1017.35 16.9457C1025.38 34.4945 1300.9 207.674 1311.09 211.725M23.9434 -463.259C96.6439 -499.61 155.235 -541.165 207.086 -531.773C268.23 -520.95 508.829 -356.25 530.003 -313.88C549.401 -274.793 513.644 -239.307 544.219 -198.392C563.373 -175.295 727.209 -99.3503 766.54 -110.968C805.871 -122.586 816.724 -186.377 868.116 -180.109C919.507 -173.842 1004.34 -110.724 1020.64 -78.1335C1036.93 -45.5429 1011.59 -17.7514 1021.62 4.18457C1029.64 21.7334 1308.12 197.756 1316.27 200.997M25.2116 -479.959C97.912 -516.31 157.748 -558.988 210.356 -549.833C272.509 -539.21 517.646 -370.685 539.19 -328.44C558.909 -289.567 522.659 -254.883 552.672 -213.15C570.954 -189.717 733.628 -113.329 772.684 -124.55C811.74 -135.77 823.327 -200.065 874.719 -193.798C926.11 -187.53 1008.85 -123.74 1025.15 -91.1494C1041.44 -58.5588 1015.85 -30.5075 1025.88 -8.5715C1033.9 8.9773 1315.34 187.844 1321.45 190.274M26.4821 -496.654C99.1826 -533.006 160.263 -576.807 213.629 -567.889C276.791 -557.464 526.466 -385.114 548.379 -342.995C568.419 -304.336 531.677 -270.455 561.127 -227.904C578.538 -204.134 740.05 -127.303 778.831 -138.126C817.612 -148.949 829.932 -213.749 881.324 -207.481C932.716 -201.214 1013.36 -136.751 1029.66 -104.161C1045.95 -71.57 1020.12 -43.2588 1030.15 -21.3228C1038.17 -3.77396 1322.56 177.936 1326.64 179.556M27.7503 -513.345C100.451 -549.696 162.776 -594.62 216.9 -585.94C281.071 -575.714 535.283 -399.54 557.565 -357.545C577.926 -319.101 540.692 -286.022 569.58 -242.653C586.119 -218.547 746.47 -141.273 784.975 -151.698C823.481 -162.124 836.535 -227.428 887.927 -221.161C939.319 -214.893 1017.87 -149.758 1034.17 -117.167C1050.46 -84.5766 1024.39 -56.0054 1034.41 -34.0694C1042.44 -16.5206 1329.78 168.032 1331.82 168.842" stroke="white" stroke-width="2"/>
</svg>